<svg version="1.1" viewBox="0.0 0.0 256.0 256.0" fill="none" stroke="none" stroke-linecap="square" stroke-miterlimit="10" xmlns:xlink="http://www.w3.org/1999/xlink" xmlns="http://www.w3.org/2000/svg"><clipPath id="p.0"><path d="m0 0l256.0 0l0 256.0l-256.0 0l0 -256.0z" clip-rule="nonzero"/></clipPath><g clip-path="url(#p.0)"><path fill="#000000" fill-opacity="0.0" d="m0 0l256.0 0l0 256.0l-256.0 0z" fill-rule="evenodd"/><path fill="#d2e5cd" d="m228.7376 82.84242l-4.4392853 3.152893l5.9192963 9.348412l4.738785 -2.6799088z" fill-rule="evenodd"/><path fill="#000000" fill-opacity="0.0" d="m229.97719 83.65341l5.1036987 8.27742" fill-rule="evenodd"/><path stroke="#666666" stroke-width="1.0" stroke-linejoin="round" stroke-linecap="butt" d="m229.97719 83.65341l5.1036987 8.27742" fill-rule="evenodd"/><path fill="#ffe599" d="m94.1828 116.91019l0 0c-1.1720734 -6.9688644 17.41735 -16.490898 46.397705 -23.76622c28.980347 -7.2753296 62.06035 -10.724564 82.56497 -8.609009c20.504623 2.1155548 23.982574 9.336632 8.680695 18.023224c-15.301895 8.686592 -46.061768 16.95295 -76.774155 20.632149l2.516739 -3.7117004c29.217941 -3.9316177 57.983246 -11.380524 71.974045 -18.638c13.990799 -7.257477 10.216782 -12.7723465 -9.443024 -13.798836c-19.659805 -1.0264893 -51.003418 2.654808 -78.42526 9.211021c-27.421844 6.5562057 -45.06092 14.586037 -44.134956 20.091545z" fill-rule="evenodd"/><path stroke="#bf9000" stroke-width="1.0" stroke-linejoin="round" stroke-linecap="butt" d="m94.1828 116.91019l0 0c-1.1720734 -6.9688644 17.41735 -16.490898 46.397705 -23.76622c28.980347 -7.2753296 62.06035 -10.724564 82.56497 -8.609009c20.504623 2.1155548 23.982574 9.336632 8.680695 18.023224c-15.301895 8.686592 -46.061768 16.95295 -76.774155 20.632149l2.516739 -3.7117004c29.217941 -3.9316177 57.983246 -11.380524 71.974045 -18.638c13.990799 -7.257477 10.216782 -12.7723465 -9.443024 -13.798836c-19.659805 -1.0264893 -51.003418 2.654808 -78.42526 9.211021c-27.421844 6.5562057 -45.06092 14.586037 -44.134956 20.091545z" fill-rule="evenodd"/><path fill="#d2e5cd" d="m159.00763 113.04845l-129.38065 79.81383l-12.3839 -20.131271l129.38066 -79.81383z" fill-rule="evenodd"/><path stroke="#666666" stroke-width="1.0" stroke-linejoin="round" stroke-linecap="butt" d="m159.00763 113.04845l-129.38065 79.81383l-12.3839 -20.131271l129.38066 -79.81383z" fill-rule="evenodd"/><path fill="#d2e5cd" d="m29.683596 192.98143l-19.522335 -5.729004l7.010228 -14.524078z" fill-rule="evenodd"/><path stroke="#666666" stroke-width="1.0" stroke-linejoin="round" stroke-linecap="butt" d="m29.683596 192.98143l-19.522335 -5.729004l7.010228 -14.524078z" fill-rule="evenodd"/><path fill="#d2e5cd" d="m150.13821 90.767204l-132.89824 82.002144l-2.1065521 -12.373337l13.461761 -2.2729797l3.809864 -7.5868683l12.851547 -1.893753l1.5329933 -5.77182l-1.5893555 -4.6476746l4.740486 -3.3294678l14.02739 1.403244l6.4881783 -1.1919098l0.6112213 -5.2031097l1.8949738 -5.1887665l11.334465 -2.9752045l5.902527 1.9919815l4.2776413 -5.457611l6.8994904 0.1686325l-3.1257095 -10.171707l11.068771 -5.186264l9.794342 2.805397l7.187172 -5.697029l-3.8608932 -6.8165894l5.1539154 -6.79776l10.306709 0.8791733z" fill-rule="evenodd"/><path stroke="#666666" stroke-width="1.0" stroke-linejoin="round" stroke-linecap="butt" d="m150.13821 90.767204l-132.89824 82.002144l-2.1065521 -12.373337l13.461761 -2.2729797l3.809864 -7.5868683l12.851547 -1.893753l1.5329933 -5.77182l-1.5893555 -4.6476746l4.740486 -3.3294678l14.02739 1.403244l6.4881783 -1.1919098l0.6112213 -5.2031097l1.8949738 -5.1887665l11.334465 -2.9752045l5.902527 1.9919815l4.2776413 -5.457611l6.8994904 0.1686325l-3.1257095 -10.171707l11.068771 -5.186264l9.794342 2.805397l7.187172 -5.697029l-3.8608932 -6.8165894l5.1539154 -6.79776l10.306709 0.8791733z" fill-rule="evenodd"/><path fill="#d2e5cd" d="m139.67773 98.9007l-120.31058 74.2544l-1.6888695 -2.738144l120.31057 -74.2544z" fill-rule="evenodd"/><path fill="#d2e5cd" d="m28.017714 191.62506c0.6887951 0.46392822 1.5640049 0.9815216 1.7986717 0.3012085c0.23466492 -0.6803131 1.3079872 -0.9884796 -0.39067268 -4.383087c-1.6986599 -3.3946075 -7.841564 -13.537155 -9.801289 -15.984573c-1.9597244 -2.447403 -1.7244835 0.32151794 -1.9570599 1.3001404c-0.23257446 0.9786072 -0.77443504 1.857605 0.56160736 4.571594c1.3360405 2.7139893 5.823185 9.346558 7.4546413 11.712341c1.6314583 2.3657837 1.6453056 2.0184479 2.3341007 2.482376z" fill-rule="evenodd"/><path fill="#000000" fill-opacity="0.1216" d="m151.82944 111.39433l-123.22972 76.05827l-3.4599419 -5.525696l123.22972 -76.058266z" fill-rule="evenodd"/><path fill="#d2e5cd" d="m199.13707 116.89484l-27.982086 9.304955l-39.136093 -61.597565l20.31128 -21.378296z" fill-rule="evenodd"/><path fill="#d2e5cd" d="m226.70041 107.78394l-9.187515 3.055153l-51.648605 -81.29141l6.66893 -7.0192585z" fill-rule="evenodd"/><path fill="#d2e5cd" d="m166.04614 29.03409l-14.611832 14.932638l10.086044 15.688133l0.7854614 -3.5225677l2.6029358 -1.9883194l9.340103 -5.9342384l4.7407684 0.8499336z" fill-rule="evenodd"/><path fill="#d2e5cd" d="m217.93796 110.62832l-20.339203 6.8712387l-9.485474 -15.989243l3.5225677 0.7854614l2.905777 -1.5116577l9.340103 -5.9342422l1.2446136 -4.6527557z" fill-rule="evenodd"/><path fill="#000000" fill-opacity="0.0" d="m173.81186 48.761738l0 0c1.4095917 -0.8955841 3.2774048 -0.47833252 4.1718903 0.93195343l26.119781 41.18195c0.42955017 0.6772461 0.5726013 1.4975967 0.39768982 2.2805862c-0.1749115 0.78299713 -0.65345764 1.4644928 -1.330368 1.8945618l-10.208847 6.4861984c-1.4095764 0.8955841 -3.2774048 0.47834015 -4.171875 -0.93195343l-26.119797 -41.181946c-0.8944855 -1.4102898 -0.4768982 -3.2795677 0.9326782 -4.175152z" fill-rule="evenodd"/><path stroke="#666666" stroke-width="1.0" stroke-linejoin="round" stroke-linecap="butt" d="m173.81186 48.761738l0 0c1.4095917 -0.8955841 3.2774048 -0.47833252 4.1718903 0.93195343l26.119781 41.18195c0.42955017 0.6772461 0.5726013 1.4975967 0.39768982 2.2805862c-0.1749115 0.78299713 -0.65345764 1.4644928 -1.330368 1.8945618l-10.208847 6.4861984c-1.4095764 0.8955841 -3.2774048 0.47834015 -4.171875 -0.93195343l-26.119797 -41.181946c-0.8944855 -1.4102898 -0.4768982 -3.2795677 0.9326782 -4.175152z" fill-rule="evenodd"/><path fill="#000000" fill-opacity="0.0" d="m226.75218 107.89208l-57.180786 19.014473l-38.906082 -61.23555l41.505646 -43.686077z" fill-rule="evenodd"/><path stroke="#666666" stroke-width="1.0" stroke-linejoin="round" stroke-linecap="butt" d="m226.75218 107.89208l-57.180786 19.014473l-38.906082 -61.23555l41.505646 -43.686077z" fill-rule="evenodd"/><path fill="#d2e5cd" d="m124.45788 53.060646l0 0c1.2163086 -0.7727852 2.829216 -0.41350555 3.6025162 0.8024788l51.127014 80.39464c0.37135315 0.58392334 0.49546814 1.2913666 0.34503174 1.9666901c-0.15042114 0.6753082 -0.56307983 1.2631836 -1.147171 1.6342926l-8.809036 5.5968323c-1.2163239 0.7727814 -2.8292236 0.41349792 -3.6025238 -0.802475l-51.127014 -80.39464c-0.7733002 -1.2159805 -0.41417694 -2.8281975 0.8021393 -3.6009827z" fill-rule="evenodd"/><path stroke="#666666" stroke-width="1.0" stroke-linejoin="round" stroke-linecap="butt" d="m124.45788 53.060646l0 0c1.2163086 -0.7727852 2.829216 -0.41350555 3.6025162 0.8024788l51.127014 80.39464c0.37135315 0.58392334 0.49546814 1.2913666 0.34503174 1.9666901c-0.15042114 0.6753082 -0.56307983 1.2631836 -1.147171 1.6342926l-8.809036 5.5968323c-1.2163239 0.7727814 -2.8292236 0.41349792 -3.6025238 -0.802475l-51.127014 -80.39464c-0.7733002 -1.2159805 -0.41417694 -2.8281975 0.8021393 -3.6009827z" fill-rule="evenodd"/><path fill="#d2e5cd" d="m119.85051 72.09628l0 0c0.46985626 -0.29853058 1.0929871 -0.15977478 1.3917923 0.30991364l38.262733 60.145195c0.14349365 0.22554016 0.19146729 0.4988098 0.13339233 0.7596741c-0.05809021 0.260849 -0.21748352 0.48794556 -0.44311523 0.6313019l-3.402954 2.1620636c-0.4698639 0.29852295 -1.0929871 0.15977478 -1.3917847 -0.309906l-38.26275 -60.145195c-0.2987976 -0.46968842 -0.16012573 -1.092453 0.30973816 -1.3909836z" fill-rule="evenodd"/><path stroke="#666666" stroke-width="1.0" stroke-linejoin="round" stroke-linecap="butt" d="m119.85051 72.09628l0 0c0.46985626 -0.29853058 1.0929871 -0.15977478 1.3917923 0.30991364l38.262733 60.145195c0.14349365 0.22554016 0.19146729 0.4988098 0.13339233 0.7596741c-0.05809021 0.260849 -0.21748352 0.48794556 -0.44311523 0.6313019l-3.402954 2.1620636c-0.4698639 0.29852295 -1.0929871 0.15977478 -1.3917847 -0.309906l-38.26275 -60.145195c-0.2987976 -0.46968842 -0.16012573 -1.092453 0.30973816 -1.3909836z" fill-rule="evenodd"/><path fill="#d2e5cd" d="m179.0635 8.989519l0 0c1.4095764 -0.8955841 3.2774506 -0.4783659 4.171997 0.9318838l59.066696 93.118645c0.4295807 0.67723083 0.57266235 1.4975586 0.3977661 2.2805405c-0.17488098 0.7829819 -0.6534271 1.4644699 -1.3303375 1.8945389l-10.208832 6.4861984c-1.4095917 0.8955841 -3.2774658 0.47837067 -4.171997 -0.93187714l-59.06671 -93.11865c-0.8945465 -1.4102497 -0.47702026 -3.2794971 0.9325714 -4.1750803z" fill-rule="evenodd"/><path stroke="#666666" stroke-width="1.0" stroke-linejoin="round" stroke-linecap="butt" d="m179.0635 8.989519l0 0c1.4095764 -0.8955841 3.2774506 -0.4783659 4.171997 0.9318838l59.066696 93.118645c0.4295807 0.67723083 0.57266235 1.4975586 0.3977661 2.2805405c-0.17488098 0.7829819 -0.6534271 1.4644699 -1.3303375 1.8945389l-10.208832 6.4861984c-1.4095917 0.8955841 -3.2774658 0.47837067 -4.171997 -0.93187714l-59.06671 -93.11865c-0.8945465 -1.4102497 -0.47702026 -3.2794971 0.9325714 -4.1750803z" fill-rule="evenodd"/><path fill="#d2e5cd" d="m135.47946 62.030903l-16.213257 11.51231l38.465134 60.54155l17.309723 -9.78656z" fill-rule="evenodd"/><path fill="#d2e5cd" d="m173.0694 22.179289l-4.033478 4.0490284l52.499634 82.63088l5.3790283 -1.9312134z" fill-rule="evenodd"/><path fill="#d2e5cd" d="m127.25222 88.57626l-3.3130035 3.9944l18.548927 29.238136l5.0072937 -1.3237305z" fill-rule="evenodd"/><path fill="#ffe599" d="m235.04066 86.92786l0 0c11.052582 3.988472 7.272934 11.282639 -9.810013 18.931877c-17.082962 7.649231 -44.642105 14.387634 -71.52925 17.489403l4.3589783 -5.8584366c25.881912 -3.6198883 51.602554 -9.757027 66.24397 -15.806305c14.641418 -6.0492783 15.634766 -10.949341 2.5583649 -12.620209z" fill-rule="evenodd"/><path stroke="#bf9000" stroke-width="1.0" stroke-linejoin="round" stroke-linecap="butt" d="m235.04066 86.92786l0 0c11.052582 3.988472 7.272934 11.282639 -9.810013 18.931877c-17.082962 7.649231 -44.642105 14.387634 -71.52925 17.489403l4.3589783 -5.8584366c25.881912 -3.6198883 51.602554 -9.757027 66.24397 -15.806305c14.641418 -6.0492783 15.634766 -10.949341 2.5583649 -12.620209z" fill-rule="evenodd"/><path fill="#ffe599" d="m149.29082 113.43903l0 0c1.7764893 -0.9829941 5.127182 1.6860428 7.4839783 5.9614563l0 0c2.3568115 4.2754135 2.8272552 8.538185 1.050766 9.521172l0 0c-1.7764893 0.9830017 -5.127182 -1.6860428 -7.4839935 -5.9614563l0 0c-2.3567963 -4.275406 -2.82724 -8.538185 -1.0507507 -9.521172z" fill-rule="evenodd"/><path stroke="#bf9000" stroke-width="1.0" stroke-linejoin="round" stroke-linecap="butt" d="m149.29082 113.43903l0 0c1.7764893 -0.9829941 5.127182 1.6860428 7.4839783 5.9614563l0 0c2.3568115 4.2754135 2.8272552 8.538185 1.050766 9.521172l0 0c-1.7764893 0.9830017 -5.127182 -1.6860428 -7.4839935 -5.9614563l0 0c-2.3567963 -4.275406 -2.82724 -8.538185 -1.0507507 -9.521172z" fill-rule="evenodd"/><path fill="#ffe599" d="m146.95026 124.05121l0 0c-32.321068 2.9851074 -54.057365 -0.48549652 -52.765335 -8.424965l5.492569 -0.82995605l0 0c-2.6090393 6.12899 20.300087 7.521019 53.645096 3.259636z" fill-rule="evenodd"/><path stroke="#bf9000" stroke-width="1.0" stroke-linejoin="round" stroke-linecap="butt" d="m146.95026 124.05121l0 0c-32.321068 2.9851074 -54.057365 -0.48549652 -52.765335 -8.424965l5.492569 -0.82995605l0 0c-2.6090393 6.12899 20.300087 7.521019 53.645096 3.259636z" fill-rule="evenodd"/><path fill="#ffe599" d="m159.86931 113.475555l0 0c1.5514679 1.3145981 0.08253479 5.615776 -3.2809448 9.6069565l0 0c-3.3634796 3.9911728 -7.3478394 6.1609573 -8.899307 4.8463593l0 0c-1.5514526 -1.3145981 -0.08253479 -5.615776 3.28096 -9.606949l0 0c3.3634796 -3.9911728 7.347824 -6.160965 8.899292 -4.846367z" fill-rule="evenodd"/><path stroke="#bf9000" stroke-width="1.0" stroke-linejoin="round" stroke-linecap="butt" d="m159.86931 113.475555l0 0c1.5514679 1.3145981 0.08253479 5.615776 -3.2809448 9.6069565l0 0c-3.3634796 3.9911728 -7.3478394 6.1609573 -8.899307 4.8463593l0 0c-1.5514526 -1.3145981 -0.08253479 -5.615776 3.28096 -9.606949l0 0c3.3634796 -3.9911728 7.347824 -6.160965 8.899292 -4.846367z" fill-rule="evenodd"/><path fill="#ffe599" d="m96.303345 113.021545c-0.5956726 0.5104904 -1.3456192 1.3039246 -1.5296783 2.1265411c-0.18406677 0.8226166 -0.3121338 2.0002594 0.42530823 2.8091736c0.7374344 0.8089218 3.3184738 2.2569962 3.999321 2.044342c0.68084717 -0.21265411 0.08577728 -2.355278 0.08577728 -3.3202667c0 -0.9649811 0.07028961 -1.7036133 -0.08577728 -2.4696426c-0.1560669 -0.76602936 -0.36812592 -1.9281769 -0.85061646 -2.1265411c-0.48249054 -0.19835663 -1.4486694 0.42590332 -2.0443344 0.93639374z" fill-rule="evenodd"/><path fill="#ffe599" d="m153.22063 119.99769c-0.5642853 -0.41088104 -1.4243774 -0.9099655 -2.2588348 -0.95654297c-0.8344574 -0.046585083 -2.015976 -0.0058135986 -2.7479095 0.677063c-0.7319336 0.6828842 -1.9205017 2.9057465 -1.6436768 3.420227c0.27682495 0.51447296 2.3465881 -0.2166977 3.3046265 -0.3333664c0.95803833 -0.1166687 1.6981354 -0.15019989 2.4435883 -0.36663055c0.7454529 -0.2164383 1.8787689 -0.52519226 2.0291443 -0.93198395c0.1503601 -0.40678406 -0.5626373 -1.0978775 -1.1269379 -1.5087662z" fill-rule="evenodd"/><path fill="#ffe599" d="m148.28592 125.02979l-11.233139 18.041634l13.277466 -12.255295l5.786331 -11.233139z" fill-rule="evenodd"/><path fill="#000000" fill-opacity="0.0" d="m147.68906 127.92887l-17.54126 24.14605" fill-rule="evenodd"/><path stroke="#bf9000" stroke-width="1.0" stroke-linejoin="round" stroke-linecap="butt" d="m147.68906 127.92887l-17.54126 24.14605" fill-rule="evenodd"/><path fill="#ffe599" d="m147.36382 125.03336l-11.286743 12.515907l-15.661331 19.39981l-12.594833 19.399796l-9.5318985 19.915741l-4.424637 19.399796l0.6790695 11.380829l8.852837 12.415436l15.997292 8.018982l18.384735 0l-12.255295 -4.138489l-10.5540695 -4.9151154l-7.830673 -6.4656982l-4.76416 -8.276962l-1.022171 -10.088211l3.4596481 -16.752151l14.807152 -27.345459l15.436165 -21.602097l19.063812 -22.761635z" fill-rule="evenodd"/><path stroke="#bf9000" stroke-width="1.0" stroke-linejoin="round" stroke-linecap="butt" d="m147.36382 125.03336l-11.286743 12.515907l-15.661331 19.39981l-12.594833 19.399796l-9.5318985 19.915741l-4.424637 19.399796l0.6790695 11.380829l8.852837 12.415436l15.997292 8.018982l18.384735 0l-12.255295 -4.138489l-10.5540695 -4.9151154l-7.830673 -6.4656982l-4.76416 -8.276962l-1.022171 -10.088211l3.4596481 -16.752151l14.807152 -27.345459l15.436165 -21.602097l19.063812 -22.761635z" fill-rule="evenodd"/><path fill="#ffe599" d="m148.89813 124.03167l0 0c1.7646332 -1.4448776 3.8192139 -1.8577194 4.589035 -0.92209625l0 0c0.36967468 0.44929504 0.38757324 1.1558228 0.04975891 1.9641571c-0.33779907 0.8083267 -1.0036621 1.6522522 -1.8510742 2.3460999l0 0c-1.7646332 1.4448853 -3.8192139 1.8577118 -4.589035 0.9221039l0 0c-0.7698059 -0.93562317 0.03666687 -2.8653946 1.8013153 -4.3102646z" fill-rule="evenodd"/><path fill="#d2e5cd" d="m222.94356 85.10381l5.0608063 -3.2166138l6.819214 10.593384l-5.0608063 3.2166138z" fill-rule="evenodd"/><path fill="#000000" fill-opacity="0.0" d="m229.98076 83.59265l5.3181458 8.19165" fill-rule="evenodd"/><path stroke="#666666" stroke-width="1.0" stroke-linejoin="round" stroke-linecap="butt" d="m229.98076 83.59265l5.3181458 8.19165" fill-rule="evenodd"/></g></svg>