<svg version="1.1" viewBox="0.0 0.0 256.0 256.0" fill="none" stroke="none" stroke-linecap="square" stroke-miterlimit="10" xmlns:xlink="http://www.w3.org/1999/xlink" xmlns="http://www.w3.org/2000/svg"><clipPath id="p.0"><path d="m0 0l256.0 0l0 256.0l-256.0 0l0 -256.0z" clip-rule="nonzero"/></clipPath><g clip-path="url(#p.0)"><path fill="#000000" fill-opacity="0.0" d="m0 0l256.0 0l0 256.0l-256.0 0z" fill-rule="evenodd"/><path fill="#9fc5e8" d="m0 128.82414l0 0c0 -70.27496 56.96912 -127.24409 127.244095 -127.24409l0 0c33.74724 0 66.11226 13.406035 89.97516 37.268932c23.8629 23.862896 37.268936 56.22793 37.268936 89.97516l0 0c0 70.27498 -56.969116 127.244095 -127.244095 127.244095l0 0c-70.27498 0 -127.244095 -56.969116 -127.244095 -127.244095z" fill-rule="evenodd"/><path fill="#ffffff" d="m102.803406 31.149635l0 0c0 -13.696022 10.905121 -24.798841 24.357262 -24.798841l0 0c6.4599533 0 12.655312 2.6127276 17.223198 7.263412c4.567871 4.6506844 7.1340637 10.958368 7.1340637 17.535429l0 0c0 13.696022 -10.905106 24.79884 -24.357262 24.79884l0 0c-13.452141 0 -24.357262 -11.102818 -24.357262 -24.79884z" fill-rule="evenodd"/><path fill="#ffffff" d="m99.781006 58.30345l54.766632 0l0 0c5.6901703 0 11.147308 2.260418 15.170868 6.2839813c4.023575 4.023567 6.2839813 9.480698 6.2839813 15.170876l0 29.34391c0 4.5013428E-4 -3.6621094E-4 8.163452E-4 -8.087158E-4 8.163452E-4l-97.67554 -8.163452E-4l0 0c-4.5013428E-4 0 -8.087158E-4 -3.6621094E-4 -8.087158E-4 -8.163452E-4l8.087158E-4 -29.343094l0 0c0 -11.84919 9.605667 -21.454857 21.454865 -21.454857z" fill-rule="evenodd"/><path fill="#ffffff" d="m103.590805 156.02103l0 0c0 -13.696014 10.905121 -24.798843 24.35727 -24.798843l0 0c6.4599457 0 12.655319 2.612732 17.22319 7.2634125c4.567871 4.6506805 7.134079 10.958374 7.134079 17.53543l0 0c0 13.696014 -10.905121 24.798843 -24.35727 24.798843l0 0c-13.452148 0 -24.35727 -11.102829 -24.35727 -24.798843z" fill-rule="evenodd"/><path fill="#ffffff" d="m100.568405 183.17485l54.766632 0l0 0c5.6901855 0 11.147308 2.2604065 15.170868 6.2839813c4.023575 4.0235596 6.2839813 9.480682 6.2839813 15.170868l0 29.343903c0 4.5776367E-4 -3.6621094E-4 8.239746E-4 -8.087158E-4 8.239746E-4l-97.67553 -8.239746E-4l0 0c-4.5013428E-4 0 -8.163452E-4 -3.5095215E-4 -8.163452E-4 -8.087158E-4l8.163452E-4 -29.343094l0 0c0 -11.849182 9.605667 -21.45485 21.454857 -21.45485z" fill-rule="evenodd"/><path fill="#0b5394" fill-opacity="0.4353" d="m31.574802 171.52756l46.855762 0l0 -62.362206l97.53257 0l0 62.362206l46.85576 0l-95.62204 62.362213z" fill-rule="evenodd"/></g></svg>