<svg version="1.1" viewBox="0.0 0.0 256.0 256.0" fill="none" stroke="none" stroke-linecap="square" stroke-miterlimit="10" xmlns:xlink="http://www.w3.org/1999/xlink" xmlns="http://www.w3.org/2000/svg"><clipPath id="p.0"><path d="m0 0l256.0 0l0 256.0l-256.0 0l0 -256.0z" clip-rule="nonzero"/></clipPath><g clip-path="url(#p.0)"><path fill="#000000" fill-opacity="0.0" d="m0 0l256.0 0l0 256.0l-256.0 0z" fill-rule="evenodd"/><path fill="#cccccc" d="m58.04264 147.91803l0 0c0 -29.710304 24.08496 -53.795265 53.795273 -53.795265l0 0c14.267395 0 27.950432 5.667694 38.03901 15.756271c10.088562 10.08857 15.756271 23.771599 15.756271 38.038994l0 0c0 29.710312 -24.084976 53.795288 -53.79528 53.795288l0 0c-29.710312 0 -53.795273 -24.084976 -53.795273 -53.795288z" fill-rule="evenodd"/><path fill="#000000" d="m6.4553647 49.195454l22.73891 0l0 188.2414l-22.73891 0z" fill-rule="evenodd"/><path fill="#000000" d="m6.4553647 237.89806l0 0c0 -6.244995 5.062571 -11.307571 11.3075695 -11.307571l188.1353 0c2.9989624 0 5.8750763 1.19133 7.9956665 3.311905c2.120575 2.1205902 3.311905 4.996704 3.311905 7.9956665l0 0l0 0c0 6.244995 -5.0625763 11.307571 -11.307571 11.307571l-188.1353 0c-6.244998 0 -11.3075695 -5.0625763 -11.3075695 -11.307571z" fill-rule="evenodd"/><path fill="#000000" d="m6.4553647 49.762745l0 0c0 -6.244995 5.062571 -11.307568 11.3075695 -11.307568l106.85166 0c2.9989548 0 5.8750763 1.19133 7.9956512 3.3119087c2.1205902 2.1205826 3.3119202 4.996708 3.3119202 7.995659l0 0l0 0c0 6.244999 -5.0625763 11.307571 -11.307571 11.307571l-106.85166 0c-6.244998 0 -11.3075695 -5.0625725 -11.3075695 -11.307571z" fill-rule="evenodd"/><path fill="#000000" d="m205.89824 249.20563l0 0c-6.244995 0 -11.307571 -5.0625763 -11.307571 -11.307571l0 -107.29372c0 -2.9989471 1.19133 -5.8750687 3.3119202 -7.9956512c2.120575 -2.1205826 4.996704 -3.3119125 7.9956512 -3.3119125l0 0l0 0c6.244995 0 11.307571 5.0625687 11.307571 11.307564l0 107.29372c0 6.244995 -5.0625763 11.307571 -11.307571 11.307571z" fill-rule="evenodd"/><path fill="#000000" d="m138.81888 117.51745l0 0c-4.413986 -4.4139786 -4.413986 -11.57045 0 -15.984428l86.747345 -86.747345c2.1196747 -2.119667 4.9945526 -3.310484 7.992218 -3.310484c2.9976654 0 5.8725433 1.1908169 7.992218 3.310484l0 0l0 0c4.413971 4.4139786 4.413971 11.57045 0 15.984428l-86.74736 86.747345c-4.413971 4.4139786 -11.57045 4.4139786 -15.984421 0z" fill-rule="evenodd"/><path fill="#000000" d="m150.61433 22.56358l0 0c0 -6.244999 5.0625763 -11.3075695 11.307571 -11.3075695l72.301254 0c2.9989471 0 5.8750763 1.19133 7.9956512 3.3119106c2.120575 2.1205807 3.311905 4.996704 3.311905 7.995659l0 0l0 0c0 6.244997 -5.062561 11.307568 -11.307556 11.307568l-72.301254 0c-6.244995 0 -11.307571 -5.0625706 -11.307571 -11.307568z" fill-rule="evenodd"/><path fill="#000000" d="m234.2261 106.86051l0 0c-6.244995 0 -11.307571 -5.0625687 -11.307571 -11.307564l0 -72.990845c0 -2.9989529 1.19133 -5.875078 3.311905 -7.995658c2.1205902 -2.1205807 4.996704 -3.3119106 7.9956665 -3.3119106l0 0l0 0c6.244995 0 11.307571 5.0625715 11.307571 11.307569l0 72.990845c0 6.244995 -5.0625763 11.307564 -11.307571 11.307564z" fill-rule="evenodd"/></g></svg>