<svg version="1.1" viewBox="0.0 0.0 512.0 512.0" fill="none" stroke="none" stroke-linecap="square" stroke-miterlimit="10" xmlns:xlink="http://www.w3.org/1999/xlink" xmlns="http://www.w3.org/2000/svg"><clipPath id="p.0"><path d="m0 0l512.0 0l0 512.0l-512.0 0l0 -512.0z" clip-rule="nonzero"/></clipPath><g clip-path="url(#p.0)"><path fill="#000000" fill-opacity="0.0" d="m0 0l512.0 0l0 512.0l-512.0 0z" fill-rule="evenodd"/><path fill="#c19e61" d="m345.49304 248.01929c8.040802 -3.5973358 9.370972 -7.134201 9.8750305 -10.8137665c0.50408936 -3.6795807 1.41922 -10.999466 -6.8505554 -11.263702c-8.269775 -0.26423645 -35.86905 4.2036285 -42.768097 9.678253c-6.899048 5.4746246 -5.2501526 21.102951 1.3737793 23.16948c6.6239624 2.0665283 30.32904 -7.172928 38.369843 -10.770264z" fill-rule="evenodd"/><path stroke="#000000" stroke-width="1.0" stroke-linejoin="round" stroke-linecap="butt" d="m345.49304 248.01929c8.040802 -3.5973358 9.370972 -7.134201 9.8750305 -10.8137665c0.50408936 -3.6795807 1.41922 -10.999466 -6.8505554 -11.263702c-8.269775 -0.26423645 -35.86905 4.2036285 -42.768097 9.678253c-6.899048 5.4746246 -5.2501526 21.102951 1.3737793 23.16948c6.6239624 2.0665283 30.32904 -7.172928 38.369843 -10.770264z" fill-rule="evenodd"/><path fill="#e5bb71" d="m386.75232 223.81335c5.175537 -3.5256348 5.3615417 -4.9730377 10.351074 -11.399994c4.989502 -6.4269714 13.77124 -19.334396 19.58603 -27.161774c5.814789 -7.8273926 4.93042 -12.862335 15.302643 -19.802551c10.372253 -6.9402313 36.129242 -15.387878 46.930756 -21.838806c10.801483 -6.4509125 23.188507 -1.1297913 17.878265 -16.866692c-5.310211 -15.736893 -38.3378 -64.95273 -49.739655 -77.55469c-11.401886 -12.601959 -2.658081 -6.9321365 -18.671509 1.9429283c-16.013458 8.875061 -57.306396 39.60572 -77.40912 51.30745c-20.102722 11.701736 -36.456177 6.1510468 -43.207245 18.902939c-6.7510986 12.751892 -1.8362427 39.57959 2.7006836 57.60843c4.5368958 18.028854 15.258148 41.46187 24.520813 50.564636c9.262634 9.102753 22.428894 5.0022736 31.055084 4.051956c8.626221 -0.9503174 15.526611 -6.228195 20.702179 -9.75383z" fill-rule="evenodd"/><path stroke="#000000" stroke-width="1.0" stroke-linejoin="round" stroke-linecap="butt" d="m386.75232 223.81335c5.175537 -3.5256348 5.3615417 -4.9730377 10.351074 -11.399994c4.989502 -6.4269714 13.77124 -19.334396 19.58603 -27.161774c5.814789 -7.8273926 4.93042 -12.862335 15.302643 -19.802551c10.372253 -6.9402313 36.129242 -15.387878 46.930756 -21.838806c10.801483 -6.4509125 23.188507 -1.1297913 17.878265 -16.866692c-5.310211 -15.736893 -38.3378 -64.95273 -49.739655 -77.55469c-11.401886 -12.601959 -2.658081 -6.9321365 -18.671509 1.9429283c-16.013458 8.875061 -57.306396 39.60572 -77.40912 51.30745c-20.102722 11.701736 -36.456177 6.1510468 -43.207245 18.902939c-6.7510986 12.751892 -1.8362427 39.57959 2.7006836 57.60843c4.5368958 18.028854 15.258148 41.46187 24.520813 50.564636c9.262634 9.102753 22.428894 5.0022736 31.055084 4.051956c8.626221 -0.9503174 15.526611 -6.228195 20.702179 -9.75383z" fill-rule="evenodd"/><path fill="#000000" fill-opacity="0.1882" d="m308.54886 139.47462l57.92386 -34.754303l23.169525 23.16954l-34.754303 57.92386z" fill-rule="evenodd"/><path fill="#000000" fill-opacity="0.1882" d="m360.16846 178.21245l0 0c9.928497 15.335159 17.000092 32.340378 20.872986 50.19374l-54.886993 11.90654l0 0c-2.436432 -11.231567 -6.8851624 -21.929535 -13.131195 -31.576889z" fill-rule="evenodd"/><path fill="#999999" d="m305.01575 129.73387l57.92386 -34.75432l23.169556 23.16954l-34.754333 57.92386z" fill-rule="evenodd"/><path stroke="#000000" stroke-width="1.0" stroke-linejoin="round" stroke-linecap="butt" d="m305.01575 129.73387l57.92386 -34.75432l23.169556 23.16954l-34.754333 57.92386z" fill-rule="evenodd"/><path fill="#999999" d="m142.38103 129.73387l-57.92386 -34.75432l-23.16954 23.16954l34.75431 57.92386z" fill-rule="evenodd"/><path stroke="#000000" stroke-width="1.0" stroke-linejoin="round" stroke-linecap="butt" d="m142.38103 129.73387l-57.92386 -34.75432l-23.16954 23.16954l34.75431 57.92386z" fill-rule="evenodd"/><path fill="#999999" d="m370.22418 224.58652l65.53317 16.3833l0 32.7666l-65.53317 16.38327z" fill-rule="evenodd"/><path stroke="#000000" stroke-width="1.0" stroke-linejoin="round" stroke-linecap="butt" d="m370.22418 224.58652l65.53317 16.3833l0 32.7666l-65.53317 16.38327z" fill-rule="evenodd"/><path fill="#999999" d="m79.45147 224.58652l-65.53318 16.3833l0 32.7666l65.53318 16.38327z" fill-rule="evenodd"/><path stroke="#000000" stroke-width="1.0" stroke-linejoin="round" stroke-linecap="butt" d="m79.45147 224.58652l-65.53318 16.3833l0 32.7666l65.53318 16.38327z" fill-rule="evenodd"/><path fill="#999999" d="m142.38103 384.9721l-57.92386 34.754303l-23.16954 -23.169525l34.75431 -57.92386z" fill-rule="evenodd"/><path stroke="#000000" stroke-width="1.0" stroke-linejoin="round" stroke-linecap="butt" d="m142.38103 384.9721l-57.92386 34.754303l-23.16954 -23.169525l34.75431 -57.92386z" fill-rule="evenodd"/><path fill="#999999" d="m305.01575 384.9721l57.92386 34.754303l23.169556 -23.169525l-34.754333 -57.92386z" fill-rule="evenodd"/><path stroke="#000000" stroke-width="1.0" stroke-linejoin="round" stroke-linecap="butt" d="m305.01575 384.9721l57.92386 34.754303l23.169556 -23.169525l-34.754333 -57.92386z" fill-rule="evenodd"/><path fill="#999999" d="m190.9318 404.82703l16.3833 65.5332l32.766586 0l16.383286 -65.5332z" fill-rule="evenodd"/><path stroke="#000000" stroke-width="1.0" stroke-linejoin="round" stroke-linecap="butt" d="m190.9318 404.82703l16.3833 65.5332l32.766586 0l16.383286 -65.5332z" fill-rule="evenodd"/><path fill="#999999" d="m190.93553 116.1895l16.383286 -65.53319l32.7666 0l16.3833 65.53319z" fill-rule="evenodd"/><path stroke="#000000" stroke-width="1.0" stroke-linejoin="round" stroke-linecap="butt" d="m190.93553 116.1895l16.383286 -65.53319l32.7666 0l16.3833 65.53319z" fill-rule="evenodd"/><path fill="#999999" d="m302.38202 127.9746l0 0c71.04297 43.205147 93.95776 135.61319 51.33188 207.00522c-42.625885 71.39206 -134.84451 95.05768 -206.58089 53.013855c-71.73638 -42.043793 -96.151276 -134.06688 -54.692337 -206.14285c41.458954 -72.075966 133.28041 -97.238525 205.6912 -56.36718l-25.695343 45.523857l0 0c-47.413147 -26.761734 -107.535995 -10.285797 -134.6825 36.90811c-27.146484 47.193893 -11.160095 107.44876 35.811447 134.97821c46.971542 27.52945 107.35445 12.033661 135.26503 -34.712402c27.910583 -46.746094 12.906433 -107.25304 -33.611084 -135.5429z" fill-rule="evenodd"/><path stroke="#000000" stroke-width="1.0" stroke-linejoin="round" stroke-linecap="butt" d="m302.38202 127.9746l0 0c71.04297 43.205147 93.95776 135.61319 51.33188 207.00522c-42.625885 71.39206 -134.84451 95.05768 -206.58089 53.013855c-71.73638 -42.043793 -96.151276 -134.06688 -54.692337 -206.14285c41.458954 -72.075966 133.28041 -97.238525 205.6912 -56.36718l-25.695343 45.523857l0 0c-47.413147 -26.761734 -107.535995 -10.285797 -134.6825 36.90811c-27.146484 47.193893 -11.160095 107.44876 35.811447 134.97821c46.971542 27.52945 107.35445 12.033661 135.26503 -34.712402c27.910583 -46.746094 12.906433 -107.25304 -33.611084 -135.5429z" fill-rule="evenodd"/><path fill="#e5bb71" d="m238.93364 159.19252c-6.7604218 4.05632 -4.9580994 4.95842 -4.50737 9.01474c0.45074463 4.05632 -0.14961243 15.323181 7.211792 15.323181c7.3614044 0 31.398193 -8.712997 36.956665 -15.323181c5.5584717 -6.6101837 3.004303 -22.835464 -3.605896 -24.337906c-6.6101685 -1.5024567 -29.29477 11.266846 -36.05519 15.323166z" fill-rule="evenodd"/><path stroke="#000000" stroke-width="1.0" stroke-linejoin="round" stroke-linecap="butt" d="m238.93364 159.19252c-6.7604218 4.05632 -4.9580994 4.95842 -4.50737 9.01474c0.45074463 4.05632 -0.14961243 15.323181 7.211792 15.323181c7.3614044 0 31.398193 -8.712997 36.956665 -15.323181c5.5584717 -6.6101837 3.004303 -22.835464 -3.605896 -24.337906c-6.6101685 -1.5024567 -29.29477 11.266846 -36.05519 15.323166z" fill-rule="evenodd"/><path fill="#e5bb71" d="m339.23404 233.25905c6.0272217 -6.423889 5.888031 -10.200027 4.931732 -13.788742c-0.9562683 -3.5887299 -2.9394836 -10.694 -10.669403 -7.743576c-7.7299194 2.9504395 -31.461182 17.731659 -35.710144 25.446152c-4.2489624 7.7144775 3.3083496 21.493073 10.216309 20.84076c6.9079895 -0.6522827 25.204315 -18.330688 31.231506 -24.754593z" fill-rule="evenodd"/><path stroke="#000000" stroke-width="1.0" stroke-linejoin="round" stroke-linecap="butt" d="m339.23404 233.25905c6.0272217 -6.423889 5.888031 -10.200027 4.931732 -13.788742c-0.9562683 -3.5887299 -2.9394836 -10.694 -10.669403 -7.743576c-7.7299194 2.9504395 -31.461182 17.731659 -35.710144 25.446152c-4.2489624 7.7144775 3.3083496 21.493073 10.216309 20.84076c6.9079895 -0.6522827 25.204315 -18.330688 31.231506 -24.754593z" fill-rule="evenodd"/><path fill="#e5bb71" d="m302.73206 194.3915c-8.222137 6.056427 -23.550262 17.52771 -29.397858 23.92418c-5.847595 6.396469 -6.173889 10.045868 -5.687683 14.454666c0.48620605 4.408798 3.1940308 11.431259 8.604919 11.998154c5.410858 0.56689453 15.99231 -3.649582 23.860321 -8.5967865c7.8680115 -4.9472046 16.970795 -14.598907 23.347717 -21.086426c6.376953 -6.4875183 15.04599 -12.320679 14.91391 -17.8387c-0.13208008 -5.5180206 -9.766113 -14.793594 -15.70636 -15.26944c-5.940216 -0.47584534 -11.71283 6.3579407 -19.934967 12.414352z" fill-rule="evenodd"/><path stroke="#000000" stroke-width="1.0" stroke-linejoin="round" stroke-linecap="butt" d="m302.73206 194.3915c-8.222137 6.056427 -23.550262 17.52771 -29.397858 23.92418c-5.847595 6.396469 -6.173889 10.045868 -5.687683 14.454666c0.48620605 4.408798 3.1940308 11.431259 8.604919 11.998154c5.410858 0.56689453 15.99231 -3.649582 23.860321 -8.5967865c7.8680115 -4.9472046 16.970795 -14.598907 23.347717 -21.086426c6.376953 -6.4875183 15.04599 -12.320679 14.91391 -17.8387c-0.13208008 -5.5180206 -9.766113 -14.793594 -15.70636 -15.26944c-5.940216 -0.47584534 -11.71283 6.3579407 -19.934967 12.414352z" fill-rule="evenodd"/><path fill="#e5bb71" d="m286.70703 168.20851c-10.215759 4.657303 -29.29477 13.520859 -36.956665 18.929077c-7.661911 5.4082184 -8.714249 9.013168 -9.01474 13.520233c-0.30049133 4.5070496 1.352829 12.019638 7.211792 13.522095c5.8589478 1.5024567 18.327148 -0.90179443 27.941925 -4.50737c9.614777 -3.6055756 21.483887 -11.717911 29.746765 -17.12613c8.262878 -5.4082184 18.929077 -9.764404 19.830536 -15.323181c0.90148926 -5.5587616 -7.9617615 -16.527008 -14.421692 -18.02945c-6.459961 -1.5024567 -14.122162 4.357422 -24.337921 9.014725z" fill-rule="evenodd"/><path stroke="#000000" stroke-width="1.0" stroke-linejoin="round" stroke-linecap="butt" d="m286.70703 168.20851c-10.215759 4.657303 -29.29477 13.520859 -36.956665 18.929077c-7.661911 5.4082184 -8.714249 9.013168 -9.01474 13.520233c-0.30049133 4.5070496 1.352829 12.019638 7.211792 13.522095c5.8589478 1.5024567 18.327148 -0.90179443 27.941925 -4.50737c9.614777 -3.6055756 21.483887 -11.717911 29.746765 -17.12613c8.262878 -5.4082184 18.929077 -9.764404 19.830536 -15.323181c0.90148926 -5.5587616 -7.9617615 -16.527008 -14.421692 -18.02945c-6.459961 -1.5024567 -14.122162 4.357422 -24.337921 9.014725z" fill-rule="evenodd"/><path fill="#ffffff" fill-opacity="0.1882" d="m273.387 177.45613c-6.403717 4.212555 -18.348663 12.109375 -22.98236 15.6093445c-4.633713 3.4999695 -5.0174103 4.489563 -4.8199005 5.3904724c0.19750977 0.9009094 1.9638062 1.6889038 6.0049896 0.014968872c4.041168 -1.6739349 12.146423 -6.232132 18.242065 -10.0585785c6.095642 -3.8264465 13.29718 -9.20105 18.331818 -12.900116c5.0346375 -3.6990814 11.765381 -8.007324 11.875916 -9.294327c0.11053467 -1.2870026 -6.77063 -0.300766 -11.2127075 1.5722809c-4.442108 1.8730316 -9.036133 5.453415 -15.439819 9.665955z" fill-rule="evenodd"/><path fill="#ffffff" fill-opacity="0.1882" d="m265.14307 144.18748c-6.4036865 4.212555 -18.348633 12.10936 -22.982346 15.609329c-4.633713 3.4999695 -5.0174103 4.4895782 -4.8199005 5.3904877c0.19752502 0.90089417 1.9638214 1.6888885 6.0049896 0.014953613c4.041168 -1.6739349 12.146423 -6.2321167 18.24208 -10.058563c6.095642 -3.8264618 13.29718 -9.20105 18.331818 -12.900131c5.034607 -3.6990662 11.765381 -8.007309 11.875916 -9.294312c0.11053467 -1.2870178 -6.77063 -0.30078125 -11.212738 1.5722656c-4.4420776 1.8730469 -9.036102 5.453415 -15.439819 9.66597z" fill-rule="evenodd"/><path fill="#e5bb71" d="m437.23953 42.913998c-6.0810547 3.422985 -30.777954 21.888882 -43.69812 29.550777c-12.920197 7.6619034 -21.425415 15.7872925 -33.822998 16.420624c-12.397583 0.6333313 -29.595886 -13.071358 -40.56256 -12.620621c-10.966675 0.450737 -16.974945 10.817986 -25.237518 15.325043c-8.262573 4.507057 -19.680603 5.85833 -24.33789 11.717285c-4.657318 5.8589554 -4.2068787 10.216072 -3.605896 23.43644c0.60098267 13.220367 1.6533203 48.524323 7.2117615 55.885742c5.5584717 7.3614044 19.679077 -3.3044739 26.139008 -11.717285c6.4599304 -8.412827 8.4140625 -29.895752 12.620636 -38.759613c4.206543 -8.863869 4.5064087 -8.41407 12.618744 -14.423576c8.112335 -6.009514 18.478027 -10.666504 36.055206 -21.633492c17.577179 -10.966995 56.63788 -35.304905 69.40784 -44.168457c12.769928 -8.863552 13.292847 -12.435852 7.211792 -9.012867z" fill-rule="evenodd"/><path stroke="#000000" stroke-width="1.0" stroke-linejoin="round" stroke-linecap="butt" d="m437.23953 42.913998c-6.0810547 3.422985 -30.777954 21.888882 -43.69812 29.550777c-12.920197 7.6619034 -21.425415 15.7872925 -33.822998 16.420624c-12.397583 0.6333313 -29.595886 -13.071358 -40.56256 -12.620621c-10.966675 0.450737 -16.974945 10.817986 -25.237518 15.325043c-8.262573 4.507057 -19.680603 5.85833 -24.33789 11.717285c-4.657318 5.8589554 -4.2068787 10.216072 -3.605896 23.43644c0.60098267 13.220367 1.6533203 48.524323 7.2117615 55.885742c5.5584717 7.3614044 19.679077 -3.3044739 26.139008 -11.717285c6.4599304 -8.412827 8.4140625 -29.895752 12.620636 -38.759613c4.206543 -8.863869 4.5064087 -8.41407 12.618744 -14.423576c8.112335 -6.009514 18.478027 -10.666504 36.055206 -21.633492c17.577179 -10.966995 56.63788 -35.304905 69.40784 -44.168457c12.769928 -8.863552 13.292847 -12.435852 7.211792 -9.012867z" fill-rule="evenodd"/><path fill="#e5bb71" d="m440.67615 41.863426l2.1846313 6.1157227l-75.61362 50.52453l-4.8032227 -4.366005z" fill-rule="evenodd"/><path fill="#ffffff" fill-opacity="0.1882" d="m409.0983 64.57488c-8.668549 5.337303 -24.843323 15.334717 -31.17566 19.67826c-6.332367 4.343544 -6.949341 5.4490128 -6.818451 6.383003c0.1308899 0.9339905 2.263733 1.5399475 7.603821 -0.77905273c5.3401184 -2.3190079 16.209564 -8.249947 24.436798 -13.134987c8.227234 -4.8850327 18.06018 -11.5664215 24.926666 -16.17524c6.866516 -4.6088142 15.961975 -10.0914 16.27237 -11.477661c0.3103943 -1.386261 -8.535767 0.5758209 -14.410034 3.1601028c-5.874237 2.584278 -12.166992 7.0082664 -20.83551 12.345573z" fill-rule="evenodd"/><path fill="#ffffff" fill-opacity="0.1882" d="m297.1146 91.36825c-6.403717 4.2125473 -18.348663 12.10936 -22.98236 15.609329c-4.633728 3.4999695 -5.0174255 4.4895706 -4.819916 5.39048c0.19754028 0.9009094 1.9638367 1.6888962 6.005005 0.014961243c4.041168 -1.6739349 12.146423 -6.2321243 18.242065 -10.058571c6.095642 -3.8264465 13.29718 -9.20105 18.331818 -12.900124c5.034607 -3.6990738 11.765381 -8.007317 11.875916 -9.294319c0.11053467 -1.2870102 -6.77063 -0.30077362 -11.2127075 1.5722733c-4.442108 1.8730392 -9.036133 5.453415 -15.439819 9.66597z" fill-rule="evenodd"/><path fill="#ffffff" fill-opacity="0.1882" d="m271.72504 131.48135c-0.17407227 7.7235107 -0.45266724 22.157211 -0.04522705 28.056778c0.4074402 5.8995667 1.2673645 6.869568 2.4898071 7.3405914c1.2224121 0.47103882 3.5726013 -0.31767273 4.8447876 -4.514389c1.2721558 -4.1967163 2.4059448 -13.44014 2.7882385 -20.665894c0.3822937 -7.225754 -0.17425537 -16.349976 -0.49447632 -22.688614c-0.32022095 -6.3386383 0.0037841797 -14.374435 -1.4268494 -15.343231c-1.4306641 -0.9687958 -5.797699 4.894661 -7.157074 9.530457c-1.359375 4.635788 -0.8251343 10.560783 -0.99920654 18.284302z" fill-rule="evenodd"/><path fill="#ffffff" fill-opacity="0.1882" d="m288.80954 213.84016c-4.479889 3.4054718 -12.831299 9.794617 -16.01413 12.685059c-3.1828003 2.890442 -3.355194 3.790039 -3.0827332 4.657593c0.27243042 0.8675537 1.7621155 1.7679749 4.717499 0.5477295c2.9553528 -1.2202454 8.72644 -4.8006134 13.01474 -7.8691864c4.2882996 -3.0685577 9.243378 -7.499527 12.715088 -10.542191c3.4717102 -3.0426788 8.196014 -6.509369 8.115173 -7.7138367c-0.08087158 -1.2044525 -5.3559875 -0.88542175 -8.60025 0.4870453c-3.2442627 1.372467 -6.3854675 4.3423004 -10.865387 7.7477875z" fill-rule="evenodd"/><path fill="#000000" fill-opacity="0.1882" d="m298.98715 192.8949c-6.635376 3.7044983 -19.858551 9.774368 -23.833984 12.549698c-3.9754333 2.7753448 -2.3407898 4.4311676 -0.01864624 4.102356c2.322113 -0.3287964 11.738434 -5.9625244 13.951355 -6.0751343c2.2129211 -0.11260986 -4.686859 7.499832 -0.6737671 5.3995056c4.013092 -2.1003265 18.976654 -13.613556 24.752258 -18.001465c5.7755737 -4.387924 9.601074 -7.050659 9.901276 -8.326035c0.3001709 -1.2753754 -4.0871277 -1.0514069 -8.100189 0.6737671c-4.013092 1.7251892 -9.342926 5.972809 -15.978302 9.677307z" fill-rule="evenodd"/><path fill="#000000" fill-opacity="0.1882" d="m301.90973 134.03537c-2.329895 7.3673096 -6.2763977 20.062912 -8.525726 26.82022c-2.2493286 6.757324 -6.2580566 12.755936 -4.9702454 13.723679c1.2878113 0.96772766 9.711517 -2.9327545 12.697144 -7.9172974c2.9856262 -4.984543 3.0413208 -15.2391815 5.216614 -21.989975c2.175293 -6.750778 3.9038696 -13.028748 7.835144 -18.514725c3.9312744 -5.485985 16.885681 -12.81691 15.752472 -14.401176c-1.1332397 -1.5842667 -17.884216 1.1823654 -22.551788 4.895584c-4.6675415 3.713211 -3.1237183 10.016365 -5.4536133 17.38369z" fill-rule="evenodd"/><path fill="#000000" fill-opacity="0.1882" d="m316.8592 217.02768c-5.9631653 5.2131805 -13.050842 10.837906 -18.001465 14.850983c-4.950653 4.013077 -11.927277 8.364914 -11.702362 9.227493c0.22491455 0.8625946 8.813782 -2.2141724 13.051758 -4.051956c4.237976 -1.8377838 9.038055 -3.861908 12.376129 -6.9747467c3.3380737 -3.112854 4.426819 -7.6892853 7.652252 -11.702362c3.2254639 -4.013077 9.300293 -9.413208 11.7005005 -12.376129c2.4002075 -2.962906 5.213501 -7.239151 2.7006836 -5.401367c-2.5127869 1.8377838 -11.814331 11.214905 -17.777496 16.428085z" fill-rule="evenodd"/></g></svg>