<svg version="1.1" viewBox="0.0 0.0 800.0 800.0" fill="none" stroke="none" stroke-linecap="square" stroke-miterlimit="10" xmlns:xlink="http://www.w3.org/1999/xlink" xmlns="http://www.w3.org/2000/svg"><clipPath id="p.0"><path d="m0 0l800.0 0l0 800.0l-800.0 0l0 -800.0z" clip-rule="nonzero"/></clipPath><g clip-path="url(#p.0)"><path fill="#000000" fill-opacity="0.0" d="m0 0l800.0 0l0 800.0l-800.0 0z" fill-rule="evenodd"/><path fill="#434343" d="m0 112.614174l800.0 0l0 574.7716l-800.0 0z" fill-rule="evenodd"/><path fill="#000000" fill-opacity="0.0" d="m31.51181 123.53018l736.9763 0l0 502.29922l-736.9763 0z" fill-rule="evenodd"/><path fill="#ffd966" d="m51.652435 396.99893q15.03125 -0.390625 24.5 -8.109375q9.484375 -7.71875 12.609375 -21.1875q3.125 -13.484375 3.3125 -46.09375q0.203125 -32.625 1.171875 -42.96875q1.765625 -16.40625 6.546875 -26.359375q4.78125 -9.96875 11.8125 -15.921875q7.03125 -5.96875 17.96875 -9.09375q7.421875 -1.953125 24.21875 -1.953125l10.9375 0l0 30.671875l-6.046875 0q-20.3125 0 -26.953125 7.328125q-6.640625 7.3125 -6.640625 32.703125q0 51.171875 -2.15625 64.65625q-3.515625 20.890625 -12.015625 32.21875q-8.484375 11.328125 -26.65625 20.125q21.484375 8.984375 31.15625 27.4375q9.671875 18.453125 9.671875 60.453125q0 38.09378 0.78125 45.31253q1.5625 13.28125 7.90625 18.546875q6.34375 5.28125 24.90625 5.28125l6.046875 0l0 30.671875l-10.9375 0q-19.140625 0 -27.734375 -3.125q-12.5 -4.5 -20.703125 -14.5625q-8.203125 -10.046875 -10.640625 -25.484375q-2.4375 -15.421875 -2.640625 -50.578156q-0.1875 -35.171875 -3.3125 -48.640625q-3.125 -13.484375 -12.609375 -21.296875q-9.46875 -7.8125 -24.5 -8.203125l0 -31.828125zm689.25 0l0 31.828125q-15.03125 0.390625 -24.515625 8.203125q-9.46875 7.8125 -12.59375 21.203125q-3.125 13.375 -3.328125 46.0q-0.1875 32.609406 -1.15625 42.96878q-1.765625 16.59375 -6.546875 26.453125q-4.78125 9.875 -11.8125 15.828125q-7.03125 5.953125 -17.96875 9.078125q-7.421875 2.15625 -24.21875 2.15625l-10.9375 0l0 -30.671875l6.046875 0q20.3125 0 26.953125 -7.328125q6.640625 -7.3125 6.640625 -32.90625q0 -48.828156 1.765625 -61.921906q3.125 -21.671875 12.5 -34.65625q9.375 -13.0 26.5625 -20.21875q-22.46875 -10.75 -31.65625 -28.421875q-9.171875 -17.671875 -9.171875 -59.671875q0 -38.078125 -0.96875 -45.5q-1.375 -13.09375 -7.71875 -18.265625q-6.34375 -5.171875 -24.90625 -5.171875l-6.046875 0l0 -30.671875l10.9375 0q19.140625 0 27.734375 3.125q12.5 4.296875 20.703125 14.453125q8.203125 10.15625 10.640625 25.59375q2.4375 15.421875 2.625 50.578125q0.203125 35.15625 3.328125 48.546875q3.125 13.375 12.59375 21.1875q9.484375 7.8125 24.515625 8.203125z" fill-rule="nonzero"/><path fill="#6fa8dc" d="m549.48315 345.90436c0.72406006 8.085785 6.5169067 25.94693 0 31.136292c-6.5169067 5.189392 -27.877869 3.7411804 -39.10141 0c-11.223572 -3.7411804 -25.464203 -15.326782 -28.239899 -22.447083c-2.7757263 -7.120331 1.0861511 -15.930206 11.585571 -20.27481c10.499451 -4.3446045 42.11847 -7.7237244 51.411133 -5.7927856c9.292603 1.9309387 3.6204834 9.292603 4.3446045 17.378387z" fill-rule="evenodd"/><path fill="#6fa8dc" d="m462.5908 387.9026c-10.861511 3.3791199 -10.378784 17.137024 -9.4133 34.032684c0.9654541 16.89566 4.8273315 54.18683 15.206085 67.34131c10.378754 13.15448 36.204987 16.292236 47.066498 11.585602c10.861511 -4.706665 17.619751 -23.2919 18.102478 -39.8255c0.4827881 -16.53363 -3.3790894 -47.187195 -15.206055 -59.37619c-11.826996 -12.189026 -44.894226 -17.137054 -55.755707 -13.757904z" fill-rule="evenodd"/><path fill="#999999" d="m505.16534 277.00388c-4.100067 -10.7535095 -11.913757 -19.03125 -19.95932 -32.027664c-8.045563 -12.996414 -18.024902 -37.13182 -28.314026 -45.950882c-10.289124 -8.819077 -21.739136 -6.344589 -33.420715 -6.9635315c-11.68158 -0.61894226 -24.909851 3.6366577 -36.66873 3.2498932c-11.75885 -0.38674927 -20.887726 -9.438324 -33.88446 -5.5704346c-12.996735 3.8678894 -29.880676 16.80983 -44.095978 28.777756c-14.2153015 11.967911 -30.558533 20.923828 -41.19577 43.029785c-10.637238 22.105957 -21.421143 69.08978 -22.627655 89.60596c-1.2065125 20.516144 10.561218 20.819275 15.38855 33.491028c4.8273315 12.671753 0.9036865 32.130615 13.575439 42.53946c12.671753 10.408844 39.23889 23.978912 62.455048 19.913696c23.216187 -4.065216 55.9122 -34.213257 76.84204 -44.305023c20.92984 -10.091797 36.66873 -8.200134 48.73706 -16.245697c12.068329 -8.045563 17.406586 -24.059387 23.672943 -32.02765c6.266327 -7.9682617 9.902374 -8.278046 13.92514 -15.781952c4.022766 -7.5039062 9.283112 -18.952362 10.211517 -29.241486c0.92840576 -10.289124 -0.5410156 -21.739777 -4.641083 -32.493256z" fill-rule="evenodd"/><path fill="#cfe2f3" d="m327.98514 231.70444l0 0c0 -5.1641846 -4.1864014 -9.350586 -9.350586 -9.350586l0 0c-2.4799194 0 -4.8582764 0.98513794 -6.611847 2.7387238c-1.7535706 1.7535706 -2.7387085 4.1319275 -2.7387085 6.611862l0 0c0 5.1641846 4.186371 9.350571 9.350555 9.350571l0 0c5.1641846 0 9.350586 -4.186386 9.350586 -9.350571z" fill-rule="evenodd"/><path fill="#cfe2f3" d="m301.11743 259.22025l0 0c0 -5.1642 -4.1864014 -9.350601 -9.350586 -9.350601l0 0c-2.4799194 0 -4.8582764 0.9851532 -6.6118774 2.7387238c-1.7535706 1.7535706 -2.7387085 4.1319275 -2.7387085 6.6118774l0 0c0 5.1641846 4.1864014 9.350555 9.350586 9.350555l0 0c5.1641846 0 9.350586 -4.186371 9.350586 -9.350555z" fill-rule="evenodd"/><path fill="#cfe2f3" d="m321.88446 291.97006l-8.868835 -7.535034l0.017150879 -45.708694l8.874481 -7.5350494z" fill-rule="evenodd"/><path fill="#cfe2f3" d="m378.10104 206.09105l0 0c0 -5.1641693 -4.1864014 -9.350571 -9.350586 -9.350571l0 0c-2.4799194 0 -4.8582764 0.98513794 -6.611847 2.7387238c-1.7536011 1.7535706 -2.738739 4.1319275 -2.738739 6.611847l0 0c0 5.1641846 4.1864014 9.350586 9.350586 9.350586l0 0c5.1641846 0 9.350586 -4.1864014 9.350586 -9.350586z" fill-rule="evenodd"/><path fill="#cfe2f3" d="m425.66263 206.09105l0 0c0 -5.1641693 -4.1864014 -9.350571 -9.350586 -9.350571l0 0c-2.4799194 0 -4.8582764 0.98513794 -6.611847 2.7387238c-1.7536011 1.7535706 -2.738739 4.1319275 -2.738739 6.611847l0 0c0 5.1641846 4.1864014 9.350586 9.350586 9.350586l0 0c5.1641846 0 9.350586 -4.1864014 9.350586 -9.350586z" fill-rule="evenodd"/><path fill="#cfe2f3" d="m369.18283 254.87563l0 0c0 -5.1641846 -4.1864014 -9.350571 -9.350586 -9.350571l0 0c-2.4799194 0 -4.8582764 0.98513794 -6.611847 2.7387085c-1.7536011 1.7535858 -2.738739 4.1319427 -2.738739 6.611862l0 0c0 5.1642 4.1864014 9.350601 9.350586 9.350601l0 0c5.1641846 0 9.350586 -4.1864014 9.350586 -9.350601z" fill-rule="evenodd"/><path fill="#cfe2f3" d="m408.0541 201.18958l-11.66217 0.13471985l-36.405304 43.90634l2.021576 11.492264z" fill-rule="evenodd"/><path fill="#cfe2f3" d="m422.61786 210.51547l-7.554413 -8.888412l-13.444672 0.010726929l-7.554413 8.900497z" fill-rule="evenodd"/><path fill="#cfe2f3" d="m366.4328 307.35495l2.8840637 -8.745972l-25.60962 -28.645203l-9.020813 1.8817749z" fill-rule="evenodd"/><path fill="#cfe2f3" d="m343.65878 279.55966l-8.869263 -7.5350647l0.018035889 -57.043427l8.874023 -7.535034z" fill-rule="evenodd"/><path fill="#cfe2f3" d="m360.26764 200.9444l-11.660065 0.13648987l-9.429718 11.381058l2.0237122 11.494019z" fill-rule="evenodd"/><path fill="#cfe2f3" d="m370.73734 208.93423l-7.554413 -8.888412l-13.444672 0.0107421875l-7.554413 8.900482z" fill-rule="evenodd"/><path fill="#cfe2f3" d="m343.57315 305.17303l-9.881195 2.1729126l-20.810028 -23.845215l3.483307 -9.503906z" fill-rule="evenodd"/><path fill="#cfe2f3" d="m296.19125 314.41907l-8.868805 -7.535034l0.017150879 -45.70871l8.874481 -7.535034z" fill-rule="evenodd"/><path fill="#cfe2f3" d="m444.3638 240.51907l0 0c0 -5.1641846 -4.1864014 -9.350586 -9.350586 -9.350586l0 0c-2.4799194 0 -4.8582764 0.98513794 -6.6118774 2.7387238c-1.7535706 1.7535706 -2.7387085 4.1319275 -2.7387085 6.611862l0 0c0 5.1641693 4.1864014 9.350571 9.350586 9.350571l0 0c5.1641846 0 9.350586 -4.1864014 9.350586 -9.350571z" fill-rule="evenodd"/><path fill="#cfe2f3" d="m457.52304 274.2819l0 0c0 -5.1641846 -4.1864014 -9.350586 -9.350586 -9.350586l0 0c-2.47995 0 -4.858307 0.98513794 -6.6118774 2.738739c-1.7535706 1.7535706 -2.7387085 4.1319275 -2.7387085 6.611847l0 0c0 5.1641846 4.1864014 9.350586 9.350586 9.350586l0 0c5.1641846 0 9.350586 -4.1864014 9.350586 -9.350586z" fill-rule="evenodd"/><path fill="#cfe2f3" d="m438.1186 246.0781l-9.265015 -2.7561798l-51.690613 62.345688l4.4187927 8.601318z" fill-rule="evenodd"/><path fill="#cfe2f3" d="m447.83603 277.89478l-4.407196 -8.892212l-36.296448 0.018341064l-4.407196 8.896698z" fill-rule="evenodd"/><path fill="#cfe2f3" d="m459.70673 300.85312l-2.3756104 -8.892853l-63.8273 0.04244995l-2.3756409 8.896027z" fill-rule="evenodd"/><path fill="#cfe2f3" d="m485.80673 271.91003l-9.561676 -2.6167908l-20.468384 23.022491l3.7115784 9.196869z" fill-rule="evenodd"/><path fill="#cfe2f3" d="m476.22418 313.65317l0 0c0 -5.1641846 -4.1864014 -9.350586 -9.350586 -9.350586l0 0c-2.4799194 0 -4.8582764 0.98513794 -6.611847 2.7387085c-1.7535706 1.7536011 -2.7387085 4.131958 -2.7387085 6.6118774l0 0c0 5.1641846 4.186371 9.350586 9.350555 9.350586l0 0c5.1641846 0 9.350586 -4.1864014 9.350586 -9.350586z" fill-rule="evenodd"/><path fill="#cfe2f3" d="m463.82898 310.29874l-2.3756409 8.893066l-72.972626 -0.042816162l-2.3756104 -8.895874z" fill-rule="evenodd"/><path fill="#cfe2f3" d="m457.52304 332.35434l0 0c0 -5.1641846 -4.1864014 -9.350586 -9.350586 -9.350586l0 0c-2.47995 0 -4.858307 0.98513794 -6.6118774 2.7387085c-1.7535706 1.7535706 -2.7387085 4.1319275 -2.7387085 6.6118774l0 0c0 5.1641846 4.1864014 9.350586 9.350586 9.350586l0 0c5.1641846 0 9.350586 -4.1864014 9.350586 -9.350586z" fill-rule="evenodd"/><path fill="#cfe2f3" d="m454.60376 333.0595l-9.561737 -2.6168518l-16.454346 18.506958l3.7115173 9.196838z" fill-rule="evenodd"/><path fill="#cfe2f3" d="m434.11237 357.36145l-2.3756104 -8.892609l-24.189972 0.019073486l-2.3756104 8.896332z" fill-rule="evenodd"/><path fill="#9fc5e8" d="m341.6005 382.2412l8.891388 4.407196l-0.1534729 219.08896l-8.8975525 4.4071655z" fill-rule="evenodd"/><path fill="#9fc5e8" d="m361.843 385.0939l8.891357 4.407196l-0.15341187 217.31006l-8.897583 4.4071655z" fill-rule="evenodd"/><path fill="#cfe2f3" d="m443.70807 211.41824l-8.676544 -3.466751l-75.833435 91.43086l5.0072327 7.8907776z" fill-rule="evenodd"/><path fill="#cfe2f3" d="m448.02896 212.06061l0 0c0 -5.1641846 -4.1864014 -9.350586 -9.350586 -9.350586l0 0c-2.4799194 0 -4.8582764 0.9851532 -6.6118774 2.7387238c-1.7535706 1.7535706 -2.7387085 4.1319275 -2.7387085 6.611862l0 0c0 5.1641846 4.1864014 9.350586 9.350586 9.350586l0 0c5.1641846 0 9.350586 -4.1864014 9.350586 -9.350586z" fill-rule="evenodd"/><path fill="#9fc5e8" d="m400.73724 356.4207l0 0c0 -25.25412 -20.472504 -45.726624 -45.726624 -45.726624l0 0c-12.127472 0 -23.75821 4.8175964 -32.33362 13.393005c-8.575409 8.575409 -13.393005 20.206146 -13.393005 32.33362l0 0c0 25.25412 20.472504 45.726624 45.726624 45.726624l0 0c25.25412 0 45.726624 -20.472504 45.726624 -45.726624z" fill-rule="evenodd"/><path fill="#cfe2f3" d="m392.40155 356.4207l0 0c0 -20.650452 -16.740509 -37.39093 -37.39093 -37.39093l0 0c-9.916687 0 -19.427216 3.939392 -26.439392 10.951538c-7.012146 7.0121765 -10.951538 16.522705 -10.951538 26.439392l0 0c0 20.650421 16.740479 37.39093 37.39093 37.39093l0 0c20.650421 0 37.39093 -16.740509 37.39093 -37.39093z" fill-rule="evenodd"/><path fill="#9fc5e8" d="m550.0957 360.88663l5.942932 -7.3537292l0 -21.282837l-2.229309 -23.217834l-5.5704346 -28.634613l-15.966309 -24.378418l-17.825012 -23.992233l-19.679962 -20.896652l-24.507263 -15.866089l-14.854492 18.575455l-3.713623 10.061142l27.10907 55.336212l16.336914 41.40509l-13.366394 19.73407l19.679932 11.609924l13.368317 -6.5793457l19.679932 5.8049316z" fill-rule="evenodd"/><path fill="#9fc5e8" d="m547.6668 363.9046l3.3240356 -0.74072266l1.425415 9.647186l-0.4751587 25.980682l0.65185547 24.105133l-10.979309 15.13327l-6.0531616 28.05429l-9.734497 1.9785767l0 -23.503052l-7.062378 -16.31961l-12.761993 -10.090851l-17.211151 -13.354736l-14.839294 -14.838196l-23.621643 -18.628937l29.676697 -30.18338l13.294189 8.658905l13.296051 9.154053l14.244476 9.64917l10.207703 2.9688416l13.296082 0.7426758l3.5596924 -0.7426758z" fill-rule="evenodd"/><path fill="#cfe2f3" d="m528.29095 467.81543l-22.882294 12.356567l-20.476257 -13.649872l9.308777 -8.3558655l-0.24707031 -14.596558l-4.6885986 -14.844147l-10.855804 -13.853851l-11.842163 -11.877289l-9.871338 -7.914215l-5.8403015 -23.21585l17.437317 9.855133l21.050201 18.02884l13.05661 10.684998l12.465546 11.2752075l9.6831665 10.233429l3.7022095 14.844116z" fill-rule="evenodd"/><path fill="#9fc5e8" d="m524.22003 476.33215l8.491577 -4.5572205l1.6610718 1.9785461l-1.6344604 26.992737l-3.8258057 1.2120972l0 -23.505005z" fill-rule="evenodd"/><path fill="#cfe2f3" d="m524.4006 475.9789l-21.365692 9.83136l-19.467072 -8.841095l-17.91623 24.095215l28.123962 16.234436l35.1597 -14.810425l-0.022827148 -24.035797z" fill-rule="evenodd"/><path fill="#9fc5e8" d="m532.7116 500.47195l-0.4751587 16.82663l-3.7991333 3.460022l-33.000732 12.867554l-89.324646 -40.729767l-2.1723022 -29.68628l4.8425293 -14.941162l18.04358 -11.873322l12.680298 -20.977844l16.654297 -23.170319l28.118286 84.47388l-17.093323 24.247711l26.82779 16.329529z" fill-rule="evenodd"/><path fill="#ffffff" d="m541.3172 358.52377l-1.484314 8.040985l-9.793457 0.61990356l-10.979309 -5.876251l-10.089874 -6.4942017l6.52829 -3.1391296l16.025208 1.2833862z" fill-rule="evenodd"/><path fill="#cfe2f3" d="m290.98 414.32397l0 0c0 -5.1641846 -4.186371 -9.350586 -9.350555 -9.350586l0 0c-2.47995 0 -4.858307 0.98513794 -6.6118774 2.7387085c-1.7535706 1.7536011 -2.7387085 4.131958 -2.7387085 6.6118774l0 0c0 5.1641846 4.1864014 9.350586 9.350586 9.350586l0 0c5.1641846 0 9.350555 -4.1864014 9.350555 -9.350586z" fill-rule="evenodd"/><path fill="#cfe2f3" d="m269.25702 358.2946l0 0c0 -5.1641846 -4.1864014 -9.350586 -9.350586 -9.350586l0 0c-2.4799194 0 -4.8582764 0.98516846 -6.611847 2.738739c-1.7535706 1.7535706 -2.7387238 4.1319275 -2.7387238 6.611847l0 0c0 5.1641846 4.1864014 9.350586 9.350571 9.350586l0 0c5.1641846 0 9.350586 -4.1864014 9.350586 -9.350586z" fill-rule="evenodd"/><path fill="#cfe2f3" d="m258.37823 362.38263l9.561676 -2.6168213l6.9442444 7.81073l-3.7115784 9.196838z" fill-rule="evenodd"/><path fill="#cfe2f3" d="m290.98 376.43103l-2.3756104 -8.891785l-15.569183 0.017486572l-2.3756104 8.897125z" fill-rule="evenodd"/><path fill="#cfe2f3" d="m279.93335 370.40784l9.56134 -2.6164856l41.222748 46.37558l-3.7118835 9.197144z" fill-rule="evenodd"/><path fill="#cfe2f3" d="m321.95288 409.55936l8.891449 4.4072266l-0.13082886 191.19681l-8.897461 4.4072266z" fill-rule="evenodd"/><path fill="#cfe2f3" d="m301.92706 418.75952l-2.3756409 -8.891785l-15.569153 0.017486572l-2.3756409 8.897125z" fill-rule="evenodd"/><path fill="#cfe2f3" d="m291.79135 412.2486l9.561707 -2.6167908l6.944214 7.8106995l-3.7115784 9.196869z" fill-rule="evenodd"/><path fill="#cfe2f3" d="m300.38953 412.83585l8.891418 4.4072266l-0.13076782 189.09866l-8.897491 4.4071655z" fill-rule="evenodd"/><path fill="#9fc5e8" d="m382.0532 430.18005l8.891113 4.407196l-0.13018799 172.22202l-8.897766 4.4071655z" fill-rule="evenodd"/><path fill="#9fc5e8" d="m379.08652 408.01575c24.038757 -11.217255 37.145844 -37.549225 31.603424 -63.490906c-5.5424194 -25.94168 -28.265594 -44.61856 -54.78949 -45.033142c-26.523895 -0.4145813 -49.819702 17.543 -56.170197 43.298767l7.143341 1.7612915c5.5298767 -22.427612 25.815369 -38.064697 48.911865 -37.703705c23.096497 0.36102295 42.883392 16.624481 47.709595 39.21396c4.826233 22.589508 -6.587158 45.51886 -27.519623 55.28662z" fill-rule="evenodd"/><path fill="#9fc5e8" d="m324.97662 309.23636l-19.8833 0.59484863l-18.695465 -19.8833l-28.78534 -26.41159l-5.0458984 11.275818l-4.747513 14.244446l-3.8580627 18.400879l62.320114 41.54547l0.59295654 -10.97934l8.012604 -16.916565z" fill-rule="evenodd"/></g></svg>