<svg version="1.1" viewBox="0.0 0.0 128.0 128.0" fill="none" stroke="none" stroke-linecap="square" stroke-miterlimit="10" xmlns:xlink="http://www.w3.org/1999/xlink" xmlns="http://www.w3.org/2000/svg"><clipPath id="p.0"><path d="m0 0l128.0 0l0 128.0l-128.0 0l0 -128.0z" clip-rule="nonzero"/></clipPath><g clip-path="url(#p.0)"><path fill="#000000" fill-opacity="0.0" d="m0 0l128.0 0l0 128.0l-128.0 0z" fill-rule="evenodd"/><path fill="#cccccc" d="m27.110237 34.217846l-2.1889782 -0.7034111l-22.26509 6.485565l22.656168 0z" fill-rule="evenodd"/><path fill="#cccccc" d="m6.485564 41.09449l17.732285 0l0 3.275589l-17.732285 0z" fill-rule="evenodd"/><path fill="#cccccc" d="m8.892388 45.464565l3.937008 0l0 14.929134l-3.937008 0z" fill-rule="evenodd"/><path fill="#cccccc" d="m15.905512 45.464565l3.937008 0l0 14.929134l-3.937008 0z" fill-rule="evenodd"/><path fill="#cccccc" d="m8.244095 61.48819l16.188976 0l3.0866146 3.0866165l0 3.086609l0 0l-22.362206 0l0 0l0 -3.086609z" fill-rule="evenodd"/><path fill="#cccccc" d="m22.813648 60.312336l0 -8.047245l2.343832 8.047245z" fill-rule="evenodd"/><path fill="#b7b7b7" d="m25.899588 35.51302l5.207609 0l0 27.801914l-5.207609 0z" fill-rule="evenodd"/><path fill="#b7b7b7" d="m36.20149 35.51225l7.9374046 0l0 27.801918l-7.9374046 0z" fill-rule="evenodd"/><path fill="#b7b7b7" d="m49.23642 35.51225l7.9374046 0l0 27.801918l-7.9374046 0z" fill-rule="evenodd"/><path fill="#b7b7b7" d="m62.27135 35.51225l7.9374046 0l0 27.801918l-7.9374046 0z" fill-rule="evenodd"/><path fill="#b7b7b7" d="m28.445885 65.31153l42.644302 0l6.1262894 6.1262894l-0.08049011 5.6485825l-38.665104 0.31847382z" fill-rule="evenodd"/><path fill="#b7b7b7" d="m33.21953 27.761099l41.21116 0l0 5.8865604l-45.82556 0z" fill-rule="evenodd"/><path fill="#b7b7b7" d="m41.17618 19.48597l7.795662 -2.7052956l32.30083 8.593605l-46.620007 0.15923691l2.068348 -3.0237732z" fill-rule="evenodd"/><path fill="#000000" fill-opacity="0.1843" d="m55.687664 35.564304l1.322834 0l0 26.48819l-1.322834 0z" fill-rule="evenodd"/><path fill="#000000" fill-opacity="0.1843" d="m68.6273 35.564304l1.3228378 0l0 26.48819l-1.3228378 0z" fill-rule="evenodd"/><path fill="#000000" fill-opacity="0.1843" d="m42.74803 35.564304l1.322834 0l0 26.48819l-1.322834 0z" fill-rule="evenodd"/><path fill="#000000" fill-opacity="0.1843" d="m29.8084 35.564304l1.322834 0l0 26.48819l-1.322834 0z" fill-rule="evenodd"/><path fill="#ffffff" fill-opacity="0.2471" d="m62.157482 35.564304l2.2992134 0l0 26.48819l-2.2992134 0z" fill-rule="evenodd"/><path fill="#ffffff" fill-opacity="0.2471" d="m49.217846 35.228348l2.2992134 0l0 26.488186l-2.2992134 0z" fill-rule="evenodd"/><path fill="#ffffff" fill-opacity="0.2471" d="m36.278214 35.564304l2.2992134 0l0 26.48819l-2.2992134 0z" fill-rule="evenodd"/><path fill="#000000" fill-opacity="0.1843" d="m74.28346 32.18635l0 1.322834l-43.59055 0l0 -1.322834z" fill-rule="evenodd"/><path fill="#ffffff" fill-opacity="0.2471" d="m74.37533 27.832022l0 2.2992115l-41.133858 0l0 -2.2992115z" fill-rule="evenodd"/><path fill="#000000" fill-opacity="0.1843" d="m73.438324 23.761154l0 1.3228359l-36.944885 0l0 -1.3228359z" fill-rule="evenodd"/><path fill="#ffffff" fill-opacity="0.2471" d="m48.0 16.501312l31.624672 8.624672l-5.375328 0l-27.498688 -7.5013123z" fill-rule="evenodd"/><path fill="#000000" fill-opacity="0.1843" d="m32.062992 68.53018l0 -1.3228302l40.629925 0l0 1.3228302z" fill-rule="evenodd"/><path fill="#000000" fill-opacity="0.1843" d="m34.375328 72.09449l0 -1.3228378l41.76378 0l0 1.3228378z" fill-rule="evenodd"/><path fill="#000000" fill-opacity="0.1843" d="m38.249344 75.343834l0 -1.3228378l38.740158 0l0 1.3228378z" fill-rule="evenodd"/><path fill="#ffffff" fill-opacity="0.2471" d="m31.131233 67.37533l0 -1.2598419l40.44095 0l0 1.2598419z" fill-rule="evenodd"/><path fill="#ffffff" fill-opacity="0.2471" d="m34.375328 70.750656l0 -1.1023636l41.07087 0l0 1.1023636z" fill-rule="evenodd"/><path fill="#ffffff" fill-opacity="0.2471" d="m37.194225 74.020996l0 -1.1023636l38.86614 0l0 1.1023636z" fill-rule="evenodd"/><path fill="#ffffff" d="m71.57218 68.53018l0 -2.8031464l2.8031464 2.8031464z" fill-rule="evenodd"/><path fill="#ffffff" d="m75.4462 72.09449l0 -2.803154l2.8031464 2.803154z" fill-rule="evenodd"/><path fill="#b45f06" d="m84.93081 80.7806l0 0c-1.6368256 -1.6368256 -1.6368256 -4.290642 0 -5.927475l1.5269699 -1.5269623l0 0c0.786026 -0.78603363 1.8521194 -1.227623 2.9637299 -1.227623c1.111618 0 2.1777115 0.44158936 2.9637375 1.227623l33.696556 33.696556c1.6368256 1.6368256 1.6368256 4.290642 0 5.9274673l-1.5269623 1.5269699c-1.6368332 1.6368256 -4.2906494 1.6368256 -5.927475 0z" fill-rule="evenodd"/><path stroke="#666666" stroke-width="1.0" stroke-linejoin="round" stroke-linecap="butt" d="m84.93081 80.7806l0 0c-1.6368256 -1.6368256 -1.6368256 -4.290642 0 -5.927475l1.5269699 -1.5269623l0 0c0.786026 -0.78603363 1.8521194 -1.227623 2.9637299 -1.227623c1.111618 0 2.1777115 0.44158936 2.9637375 1.227623l33.696556 33.696556c1.6368256 1.6368256 1.6368256 4.290642 0 5.9274673l-1.5269623 1.5269699c-1.6368332 1.6368256 -4.2906494 1.6368256 -5.927475 0z" fill-rule="evenodd"/><path fill="#efefef" d="m82.090065 77.21732l6.6354675 -6.6354675c0.2144165 -0.2144165 0.50522614 -0.334877 0.8084564 -0.334877c0.3032303 0 0.5940399 0.12046051 0.8084564 0.334877l4.0421753 4.042183c3.8146973E-5 3.8146973E-5 3.8146973E-5 9.918213E-5 0 1.373291E-4l-8.25238 8.252243l0 0c-3.8146973E-5 3.8146973E-5 -9.918213E-5 3.8146973E-5 -1.373291E-4 0l-4.042038 -4.042183l0 0c-0.4465027 -0.44649506 -0.4465027 -1.1704102 0 -1.6169128z" fill-rule="evenodd"/><path stroke="#666666" stroke-width="1.0" stroke-linejoin="round" stroke-linecap="butt" d="m82.090065 77.21732l6.6354675 -6.6354675c0.2144165 -0.2144165 0.50522614 -0.334877 0.8084564 -0.334877c0.3032303 0 0.5940399 0.12046051 0.8084564 0.334877l4.0421753 4.042183c3.8146973E-5 3.8146973E-5 3.8146973E-5 9.918213E-5 0 1.373291E-4l-8.25238 8.252243l0 0c-3.8146973E-5 3.8146973E-5 -9.918213E-5 3.8146973E-5 -1.373291E-4 0l-4.042038 -4.042183l0 0c-0.4465027 -0.44649506 -0.4465027 -1.1704102 0 -1.6169128z" fill-rule="evenodd"/><path fill="#efefef" d="m85.346825 74.318924l0 0c-13.786499 14.617996 -36.797478 15.337181 -51.469917 1.608635c-14.6724415 -13.728542 -15.482683 -36.736496 -1.8123131 -51.46315c13.670372 -14.726655 36.67494 -15.627941 51.455578 -2.0159569c14.78064 13.611984 15.772957 36.612804 2.2195663 51.447193l-2.907402 -2.6563416c12.090431 -13.233162 11.205223 -33.751274 -1.9799881 -45.893982c-13.185219 -12.142706 -33.706673 -11.338704 -45.901463 1.7983551c-12.194792 13.137062 -11.472008 33.661533 1.6166916 45.90822c13.088696 12.246681 33.61587 11.605125 45.914257 -1.4350052z" fill-rule="evenodd"/><path stroke="#999999" stroke-width="1.0" stroke-linejoin="round" stroke-linecap="butt" d="m85.346825 74.318924l0 0c-13.786499 14.617996 -36.797478 15.337181 -51.469917 1.608635c-14.6724415 -13.728542 -15.482683 -36.736496 -1.8123131 -51.46315c13.670372 -14.726655 36.67494 -15.627941 51.455578 -2.0159569c14.78064 13.611984 15.772957 36.612804 2.2195663 51.447193l-2.907402 -2.6563416c12.090431 -13.233162 11.205223 -33.751274 -1.9799881 -45.893982c-13.185219 -12.142706 -33.706673 -11.338704 -45.901463 1.7983551c-12.194792 13.137062 -11.472008 33.661533 1.6166916 45.90822c13.088696 12.246681 33.61587 11.605125 45.914257 -1.4350052z" fill-rule="evenodd"/><path fill="#f3f3f3" d="m82.14586 72.412506l1.343895 -1.3439026l2.26783 2.26783l-1.343895 1.3439026z" fill-rule="evenodd"/><path fill="#ffffff" d="m23.738985 41.697994l0 0c2.5324535 -11.067007 10.034262 -20.314222 20.293123 -25.014627c10.258862 -4.700405 22.10455 -4.3178244 32.04375 1.0349178l-0.5192642 0.97935486l0 0c-9.635185 -5.1915607 -21.11924 -5.563284 -31.06496 -1.0055275c-9.945717 4.5577545 -17.218388 13.524992 -19.672941 24.256836z" fill-rule="evenodd"/><path fill="#ffffff" fill-opacity="0.2471" d="m34.66033 62.543354l0 0c-7.14382 -15.366173 -1.5641403 -33.111153 12.462563 -39.63453c14.026707 -6.5233746 31.188805 0.64512825 38.332626 16.0113l0 0c-8.569572 -12.183174 -23.666164 -16.8201 -36.03446 -11.068001c-12.36829 5.752098 -18.552282 20.28595 -14.760731 34.69123z" fill-rule="evenodd"/><path fill="#000000" fill-opacity="0.1843" d="m94.30937 56.99093l0 0c-2.526619 11.07357 -10.021004 20.326706 -20.27098 25.028076c-10.249977 4.7013702 -22.085072 4.31411 -32.011818 -1.0474625l0.51851654 -0.9779434l0 0c9.623169 5.20063 21.097153 5.5770493 31.03444 1.0181274c9.937286 -4.5589294 17.202873 -13.532494 19.651695 -24.271389z" fill-rule="evenodd"/><path fill="#000000" fill-opacity="0.1843" d="m87.59662 82.52321l1.4068985 -1.4068985l32.631546 32.631554l-1.4068909 1.4068985z" fill-rule="evenodd"/><path fill="#000000" fill-opacity="0.1843" d="m81.900734 78.21163l1.4068985 -1.4068909l4.199684 4.22068l-1.4068909 1.4068909z" fill-rule="evenodd"/><path fill="#000000" fill-opacity="0.1843" d="m82.74083 76.42677l6.656502 -6.656502l1.3439026 1.3439026l-6.656502 6.656502z" fill-rule="evenodd"/><path fill="#000000" fill-opacity="0.1843" d="m120.6062 114.66546l5.655571 -5.655571c0.06590271 -0.06590271 0.15528107 -0.10292053 0.24848175 -0.10292053c0.09320068 0 0.18258667 0.037017822 0.24848938 0.10292053l0.49695587 0.4969635l0 0c0.4116974 0.4116974 0.4116974 1.0791855 0 1.4908829l-4.6616516 4.6616516c-0.4116974 0.4116974 -1.0791931 0.4116974 -1.4908905 0l-0.49695587 -0.49695587l0 0c-0.13722992 -0.13723755 -0.13722992 -0.3597412 0 -0.49697113z" fill-rule="evenodd"/><path fill="#000000" fill-opacity="0.1843" d="m25.556234 44.32528l0 0c2.274784 -11.370323 9.443182 -20.890133 19.298525 -25.62891c9.855343 -4.738776 21.21637 -4.128536 30.585785 1.64287l-0.4862976 0.9171772l0 0c-9.084702 -5.6215925 -20.107208 -6.222395 -29.669537 -1.6171951c-9.562328 4.605198 -16.516438 13.863506 -18.718534 24.920795z" fill-rule="evenodd"/><path fill="#ffffff" d="m92.40202 54.85171c-2.3292923 11.303684 -9.569321 20.763752 -19.512108 25.495205c-9.942795 4.731453 -21.40945 4.173279 -30.903023 -1.5042877l0.4932518 -0.93029785l0 0c9.204784 5.5252 20.328014 6.0735245 29.973507 1.4775696c9.6455 -4.5959625 16.668053 -13.790527 18.923523 -24.77639z" fill-rule="evenodd"/></g></svg>