<svg version="1.1" viewBox="0.0 0.0 512.0 512.0" fill="none" stroke="none" stroke-linecap="square" stroke-miterlimit="10" xmlns:xlink="http://www.w3.org/1999/xlink" xmlns="http://www.w3.org/2000/svg"><clipPath id="p.0"><path d="m0 0l512.0 0l0 512.0l-512.0 0l0 -512.0z" clip-rule="nonzero"/></clipPath><g clip-path="url(#p.0)"><path fill="#000000" fill-opacity="0.0" d="m0 0l512.0 0l0 512.0l-512.0 0z" fill-rule="evenodd"/><path fill="#3e80ba" d="m177.09035 238.41814c7.201889 8.8324585 14.267944 32.33998 17.9366 46.471664c3.6686707 14.131683 3.3961792 27.855804 4.075409 38.31842c0.67922974 10.462616 0.81547546 16.98407 0 24.457245c-0.8154907 7.473175 -1.4955292 9.375427 -4.8928986 20.381836c-3.3973846 11.006409 -11.550995 34.650177 -15.491364 45.656586c-3.9403534 11.006409 -6.384384 19.838043 -8.150803 20.381836c-1.7664032 0.5437927 -2.855194 -1.9006348 -2.4476624 -17.11911c0.407547 -15.218445 3.5340424 -55.43994 4.892914 -74.19162c1.3588562 -18.751678 6.7931366 -19.83847 3.260315 -38.31845c-3.5328217 -18.47998 -24.59349 -61.55507 -24.457245 -72.56146c0.13626099 -11.006409 18.072845 -2.3094025 25.274734 6.523056z" fill-rule="evenodd"/><path fill="#00e7ff" d="m77.62368 218.03473c-11.930725 1.068634 -10.834274 4.095154 -16.405605 6.269104c-5.5713234 2.1739502 -12.011345 2.384369 -17.022354 6.774597c-5.011009 4.3902283 -11.548981 8.016968 -13.043699 19.566757c-1.4947166 11.549789 -6.6343155 30.439316 4.0753994 49.73198c10.709717 19.292633 36.797924 54.12906 60.182903 66.023895c23.384972 11.894836 66.415726 7.125702 80.12697 5.3451843c13.711243 -1.7805176 1.7837372 -6.0562744 2.1404877 -16.02829c0.3567505 -9.972046 -0.17373657 -27.378967 0 -43.803894c0.17373657 -16.424957 2.0917206 -42.360382 1.0424347 -54.74582c-1.0492859 -12.385422 -4.620407 -14.675064 -7.33815 -19.566757c-2.7177277 -4.891693 -2.5383453 -6.498474 -8.968292 -9.783386c-6.429947 -3.2848969 -15.479675 -8.295502 -29.611359 -9.926071c-14.131676 -1.6305695 -43.24801 -0.92593384 -55.178734 0.1427002z" fill-rule="evenodd"/><path fill="#00e7ff" d="m179.22382 388.75916c0.37368774 12.132294 -0.5143585 47.039246 -0.44985962 59.600006c0.0644989 12.560791 1.58461 10.47229 0.836853 15.764679c-0.7477722 5.292389 10.14859 12.591827 -5.3234253 15.9895935c-15.472 3.397766 -64.84602 4.6413574 -87.50864 4.3970947c-22.662613 -0.24429321 -40.538742 3.4191284 -48.46703 -5.862793c-7.9282856 -9.281921 1.3620949 -23.2193 0.897316 -49.828705c-0.4647827 -26.609436 -11.158375 -96.93768 -3.6860008 -109.82782c7.472374 -12.890106 25.018764 23.058075 48.52024 32.48712c23.501472 9.429047 76.62518 17.873718 92.4886 24.087189c15.863434 6.2134705 2.3182678 1.0613708 2.6919403 13.193634z" fill-rule="evenodd"/><path fill="#000000" d="m178.91122 139.86923c2.6960907 -5.391449 -0.63752747 -25.326569 2.1293182 -33.626747c2.766861 -8.300186 13.478622 -11.77607 14.4717865 -16.174355c0.99316406 -4.3982925 -4.965805 -8.016426 -8.512817 -10.215378c-3.546997 -2.1989594 -13.534485 -1.4877014 -12.769226 -2.9783707c0.7652588 -1.4906769 17.730576 -3.9782333 17.360794 -5.9656754c-0.3697815 -1.987442 -14.344803 -4.6120377 -19.579483 -5.958969c-5.23468 -1.3469353 -10.977295 -0.6326904 -11.8285675 -2.1226234c-0.85128784 -1.4899292 10.267883 -4.8306313 6.720871 -6.8169556c-3.546997 -1.9863243 -21.420563 -4.889469 -28.002914 -5.1009865c-6.5823517 -0.21151733 -6.5253754 3.6900063 -11.491188 3.8318863c-4.9658127 0.14188004 -11.493416 -4.1864014 -18.303673 -2.980606c-6.810257 1.2057991 -15.960602 5.958973 -22.557846 10.215382c-6.597252 4.256405 -12.62735 10.002377 -17.025635 15.323071c-4.3982925 5.320694 -7.646267 9.295204 -9.364101 16.601112c-1.7178307 7.3059006 -1.4243889 19.432014 -0.94288635 27.234306c0.48149872 7.802307 -0.56640625 12.769226 3.8318825 19.579483c4.3982925 6.810257 5.5884476 21.635818 22.557846 21.282043c16.969406 -0.35377502 63.707603 -19.716888 79.25857 -23.404663c15.55098 -3.6877747 11.351181 6.6694946 14.047272 1.2780457z" fill-rule="evenodd"/><path fill="#f6b26b" d="m102.71952 105.06625c1.7027206 -1.4898834 7.944008 -1.0642014 9.362541 0c1.4185257 1.0641937 -2.9793549 5.463295 -0.85136414 6.385193c2.1279984 0.9219055 5.5322266 -0.49864197 13.619339 -0.853775c8.087112 -0.3551407 26.67392 -0.7098694 34.90332 -1.2770386c8.229401 -0.5671692 11.777145 -2.6230087 14.473114 -2.1259842c2.6959686 0.49703217 1.2064972 -0.42487335 1.702713 5.108162c0.49623108 5.5330276 1.1327362 18.867767 1.2746277 28.090027c0.14189148 9.2222595 2.3428497 17.950302 -0.42326355 27.2435c-2.7661133 9.293213 -10.427139 22.698898 -16.173416 28.515717c-5.746277 5.816818 -13.692703 5.5338287 -18.30423 6.385193c-4.6115265 0.85136414 -7.9460144 -3.1921997 -9.36496 -1.2770386c-1.41893 1.9151611 0.9223175 8.865906 0.85136414 12.767975c-0.07093811 3.902069 0.3386078 7.122879 -1.2770386 10.644409c-1.6156464 3.5215454 -1.4648895 10.556137 -8.416847 10.484787c-6.9519653 -0.0713501 -26.68158 -7.6045837 -33.29493 -10.912872c-6.6133575 -3.3083038 -6.3852005 -4.5381775 -6.3852005 -8.936859c0 -4.398697 6.030464 -10.857666 6.3852005 -17.455292c0.3547287 -6.597641 -2.9797592 -16.810318 -4.256798 -22.130508c-1.2770462 -5.3202057 -1.7736664 -7.520355 -3.4054413 -9.790649c-1.6317749 -2.270279 -5.1085587 -1.1355438 -6.3852005 -3.8311157c-1.2766342 -2.6955566 -1.9131393 -9.150101 -1.27462 -12.342285c0.6385193 -3.1921997 2.9067993 -6.2433014 5.1057434 -6.8108826c2.198944 -0.5675659 5.888565 1.6317749 8.0879135 3.4054413c2.1993484 1.7736664 3.405838 7.804123 5.1081543 7.236557c1.7023163 -0.5675812 4.3966827 -5.676132 5.1057434 -10.641998c0.70906067 -4.965866 -1.3479843 -14.329605 -0.85136414 -19.153168c0.4966278 -4.8235703 3.0503082 -6.6669693 3.8311234 -9.788223c0.7808151 -3.1212463 -0.8489456 -7.449394 0.853775 -8.93927z" fill-rule="evenodd"/><path fill="#3f0101" d="m355.25943 211.95535c-9.675751 0.84451294 -27.260834 2.3795319 -35.938477 0.45954895c-8.677673 -1.9199982 -12.595062 -8.370499 -16.127472 -11.979507c-3.5324097 -3.6090088 -2.6097107 -7.831543 -5.067047 -9.674545c-2.4573364 -1.8429871 -6.835449 0.61312866 -9.676941 -1.3834534c-2.8414917 -1.996582 -6.4505005 -7.3707886 -7.3720093 -10.596039c-0.9215088 -3.2252502 3.3788452 -6.37471 1.8429871 -8.755463c-1.5358276 -2.3807373 -8.984802 -1.996582 -11.057983 -5.5289917c-2.0731812 -3.532425 0.0012207031 -11.211594 -1.3810425 -15.665512c-1.3822632 -4.453903 -6.9124756 -6.681076 -6.9124756 -11.057999c0 -4.3769226 6.605316 -11.133781 6.9124756 -15.203537c0.30715942 -4.0697556 -5.4532166 -5.4520035 -5.069458 -9.214996c0.38375854 -3.7629929 6.75766 -10.214302 7.3720093 -13.362961c0.61431885 -3.1486588 -4.6845093 -2.995079 -3.6860046 -5.5289993c0.9984741 -2.533928 8.448273 -6.449295 9.676941 -9.674545c1.2286682 -3.2252502 -4.147949 -6.144539 -2.3049622 -9.676956c1.8430176 -3.5324173 10.214325 -9.981705 13.362976 -11.51754c3.1486511 -1.5358353 4.4539185 3.7617798 5.5289917 2.3025436c1.0750732 -1.4592438 -0.537323 -8.063332 0.9215088 -11.058002c1.4588318 -2.9946747 4.4526978 -5.7583694 7.831543 -6.910042c3.3788147 -1.1516724 9.446381 1.5358353 12.441467 0c2.9950562 -1.5358315 3.5324097 -6.4505005 5.5289917 -9.215c1.996582 -2.7644997 3.4558105 -6.527088 6.4505005 -7.3719997c2.9946594 -0.84490967 8.753021 1.4580326 11.517548 2.3025417c2.7644958 0.8445053 2.9958801 3.301838 5.069458 2.7644997c2.073578 -0.5373421 3.302246 -5.4512005 7.3719788 -5.9885406c4.069763 -0.53734016 13.20697 2.9950752 17.04654 2.7644997c3.8395996 -0.23057556 2.1513977 -5.2230434 5.990967 -4.1479607c3.8395996 1.0750847 12.208862 8.909042 17.04654 10.598461c4.837677 1.689415 8.4470825 -0.8457184 11.979492 -0.46195984c3.5324402 0.38375473 7.3720093 0.92150116 9.215027 2.7644997c1.8429871 1.8429985 -0.4607544 5.7591743 1.8429871 8.293499c2.3037415 2.5343285 9.598755 4.685299 11.979492 6.9124603c2.3807373 2.2271614 0.077819824 4.300335 2.3049622 6.4505005c2.2271729 2.1501694 8.984833 3.4558258 11.058014 6.4505005c2.0731506 2.9946747 -0.15481567 8.599457 1.3810425 11.51754c1.5358276 2.9180832 5.2230225 3.6102142 7.833954 5.990959c2.6109009 2.380745 7.063629 4.5309067 7.831543 8.293503c0.7679138 3.7625885 -3.3776245 10.135284 -3.22406 14.282036c0.15359497 4.1467514 4.2991333 6.9124603 4.1455383 10.598457c-0.15356445 3.6860046 -4.913452 7.754959 -5.0670166 11.517548c-0.15359497 3.7625885 4.913452 7.371994 4.1455383 11.057999c-0.7679138 3.6860046 -7.6013794 6.296921 -8.753052 11.057999c-1.1516724 4.761078 4.3003235 13.668915 1.8429871 17.5085c-2.457306 3.8395844 -13.668915 3.0716705 -16.586975 5.529007c-2.9180908 2.4573212 2.073578 5.1448364 -0.9215088 9.214996c-2.9950867 4.07016 -7.6803894 11.750137 -17.04895 15.205963c-9.368591 3.4558258 -28.949463 3.839569 -39.162537 5.5289917c-10.213104 1.6894226 -12.440277 3.7630005 -22.116028 4.607498z" fill-rule="evenodd"/><path fill="#8e5214" d="m266.3326 318.87643c4.684082 -3.993164 9.905914 -3.6871948 14.743988 -2.3049316c4.8380737 1.3822327 14.438049 6.1445312 14.284454 10.59845c-0.15356445 4.4539185 -8.371277 9.981689 -15.205963 16.12503c-6.834656 6.143341 -19.65866 15.052368 -25.801987 20.734955c-6.143341 5.6825867 -8.014145 8.694611 -11.057999 13.360565c-3.0438538 4.665924 -3.4425201 13.560059 -7.205124 14.635132c-3.7625885 1.0751038 -12.347931 -4.7473755 -15.370422 -8.184662c-3.0224915 -3.4372559 -4.9146576 -9.213776 -2.7644958 -12.439026c2.1501617 -3.2252502 9.82933 -1.7672119 15.665497 -6.912445c5.8361664 -5.1452637 13.89949 -16.356842 19.351501 -23.959015c5.452011 -7.602173 8.676437 -17.660858 13.36055 -21.654053z" fill-rule="evenodd"/><path fill="#f1c232" d="m275.8119 327.57593c-6.005066 -1.1170044 -18.507782 2.3049622 -19.813446 -4.1455383c-1.3056641 -6.4505005 5.759186 -19.659882 11.979492 -34.557465c6.220337 -14.897583 16.81839 -40.928955 25.342468 -54.82805c8.524078 -13.899078 18.122833 -22.423157 25.802002 -28.566498c7.6791687 -6.143326 11.979492 -6.219925 20.27298 -8.293503c8.293518 -2.073578 14.667419 -4.9158783 29.488007 -4.147949c14.820587 0.7679138 44.69156 1.8442078 59.435547 8.755447c14.743988 6.911255 20.120636 17.968048 29.028473 32.71205c8.907837 14.744003 19.503876 41.852448 24.418518 55.751953c4.914673 13.899506 7.37323 21.194489 5.069458 27.644989c-2.3037415 6.4505005 -13.977295 8.524078 -18.891937 11.058014c-4.914673 2.5339355 -6.4654236 -4.5921936 -10.596039 4.1455383c-4.1306458 8.737732 -13.973267 26.257904 -14.187714 48.280792c-0.21447754 22.022888 12.133057 66.46451 12.901001 83.85651c0.7679138 17.391998 -0.15359497 17.07959 -8.293518 20.495514c-8.139923 3.415924 -25.242096 0.08746338 -40.54599 0c-15.303925 -0.08746338 -37.454987 1.3181458 -51.277496 -0.5248413c-13.822479 -1.8430176 -26.074097 -0.3305359 -31.657501 -10.533173c-5.583435 -10.202606 -1.5358276 -32.406067 -1.8430176 -50.682495c-0.30715942 -18.276398 0.9215088 -42.78122 0 -58.975983c-0.9214783 -16.194794 -0.45993042 -32.37787 -5.5289917 -38.192688c-5.0690613 -5.814789 -18.034943 3.1793213 -24.885345 3.3038635c-6.8503723 0.124572754 -10.211884 -1.4394836 -16.21695 -2.556488z" fill-rule="evenodd"/><path fill="#8e5214" d="m443.26202 330.9977c5.545929 -2.8374634 19.658691 -4.07016 23.959015 -3.6860046c4.3003235 0.38415527 1.9195862 1.7672119 1.8429871 5.990967c-0.0765686 4.2237244 2.4754944 13.365784 -2.3025208 19.351501c-4.778015 5.985718 -15.827972 10.884247 -26.36554 16.562805c-10.537598 5.6785583 -23.054443 12.05246 -36.860016 17.508514c-13.8055725 5.456024 -36.451233 11.695282 -45.97342 15.227722c-9.522156 3.5324097 -5.246826 2.741516 -11.159576 5.9667664c-5.9127502 3.2252502 -18.32721 11.388153 -24.316956 13.384735c-5.989746 1.996582 -6.9201355 0.5183716 -11.6215515 -1.4052429c-4.701416 -1.9236145 -14.684326 -6.6080933 -16.587006 -10.136505c-1.9026489 -3.5283813 1.3911438 -7.6589966 5.171051 -11.033813c3.7799377 -3.3747864 16.510406 -7.3719788 17.508514 -9.214996c0.9980774 -1.8429871 -8.755463 -0.84451294 -11.5199585 -1.8429871c-2.7645264 -0.99850464 -7.063629 -2.9193115 -5.067047 -4.1479797c1.996582 -1.2286377 10.442444 -2.6096802 17.04654 -3.2240295c6.604065 -0.61431885 13.533478 -0.15075684 22.577942 -0.46194458c9.044495 -0.31121826 15.963806 4.5115356 31.688965 -1.4052429c15.725159 -5.9167786 50.66559 -26.189789 62.662018 -34.09549c11.996429 -7.905731 3.77063 -10.501312 9.316559 -13.338776z" fill-rule="evenodd"/><path fill="#8e5214" d="m305.95712 121.185715c-0.53775024 4.07016 -0.30715942 11.135803 0 17.048965c0.30715942 5.913162 -0.53775024 11.979492 1.8430176 18.429993c2.3807373 6.4505005 6.52829 15.128159 12.441437 20.27301c5.9131775 5.1448364 17.969269 8.138702 23.037506 10.596039c5.0682373 2.4573364 5.2218323 3.68721 7.3720093 4.147949c2.1501465 0.4607544 5.0682373 -2.0743713 5.5289917 -1.3834534c0.4607544 0.69091797 -2.0731812 0.53733826 -2.7644958 5.529007c-0.6913452 4.9916534 -1.9208069 17.663284 -1.3834534 24.42096c0.537323 6.75766 -0.7679138 14.435623 4.607483 16.12503c5.3754272 1.6894226 19.120941 -0.15237427 27.64502 -5.9885406c8.524078 -5.8361664 22.577942 -22.193802 23.49945 -29.028458c0.9215088 -6.834656 -13.362976 -6.3739014 -17.970459 -11.979492c-4.6075134 -5.605591 -9.779358 -11.782394 -9.67453 -21.654053c0.10479736 -9.871658 11.609039 -30.894836 10.303375 -37.575912c-1.3056641 -6.681076 -13.683441 0.25395203 -18.13736 -2.5105438c-4.4539185 -2.7644958 -4.390625 -11.26963 -8.586151 -14.076454c-4.195526 -2.8068237 -12.873169 -1.1174088 -16.587006 -2.7645035c-3.7138062 -1.6470871 -3.7480774 -5.4709473 -5.695862 -7.118042c-1.947815 -1.6470871 -4.070984 -3.37883 -5.990967 -2.7644958c-1.9199829 0.6143341 -2.9950867 5.1448364 -5.5289917 6.4505005c-2.5339355 1.3056564 -7.140625 0.384964 -9.674561 1.3834534c-2.533905 0.998497 -3.6860046 3.7630005 -5.5289917 4.607506c-1.8429871 0.8445053 -4.069763 -0.8457184 -5.5289917 0.45954132c-1.459259 1.3052521 -2.6887207 3.301834 -3.226471 7.371994z" fill-rule="evenodd"/><path fill="#f6b26b" d="m181.26399 369.91003c7.9701996 -4.1322327 30.178116 -5.606781 37.319534 -4.147949c7.1414185 1.4588318 1.996582 8.677246 5.529007 12.901001c3.5324097 4.223755 14.283249 9.446381 15.665497 12.441467c1.3822479 2.9950562 -5.7595825 3.6860046 -7.3720093 5.5289917c-1.6124115 1.8430176 -0.6131134 4.3003235 -2.302536 5.5289917c-1.6894226 1.2286682 -5.6067963 0.61434937 -7.833954 1.8430176c-2.2271576 1.2286682 -2.8414917 5.2218323 -5.529007 5.5289917c-2.6875 0.30715942 -2.9329987 -0.52282715 -10.596039 -3.6860046c-7.66304 -3.1631775 -31.235458 -9.303284 -35.382217 -15.29303c-4.146744 -5.989746 2.5315094 -16.513214 10.501724 -20.645477z" fill-rule="evenodd"/><path fill="#3e80ba" d="m34.414177 254.7249c3.058361 -15.088257 9.781765 -23.64418 16.30402 -24.459656c6.522251 -0.8154907 19.432117 8.832443 22.829494 19.566757c3.397377 10.734314 -4.0758057 32.74591 -2.4452362 44.83908c1.6305618 12.09317 9.3750305 20.382233 12.228615 27.71997c2.8535843 7.337738 -0.2051773 12.425751 4.8928986 16.306427c5.0980835 3.8807068 20.875648 4.2789917 25.69558 6.977783c4.8199387 2.6987915 -0.38536835 7.448578 3.2240448 9.214996c3.6094055 1.7663879 7.451004 0.38494873 18.432411 1.3834534c10.981415 0.99850464 40.545197 0.15359497 47.45604 4.6075134c6.910858 4.453888 -3.0978546 16.437439 -5.9909515 22.115997c-2.893097 5.678528 -7.0273438 9.962738 -11.367584 11.955292c-4.3402405 1.9925537 -7.7440643 -0.13623047 -14.673859 0c-6.9297943 0.13626099 -15.810211 1.274231 -26.9049 0.8175049c-11.094681 -0.45672607 -27.754242 0.95214844 -39.6632 -3.5578003c-11.908958 -4.5099487 -23.113281 -11.5989685 -31.790539 -23.501892c-8.677258 -11.902893 -17.235195 -28.918 -20.272999 -47.91559c-3.0378075 -18.997559 -1.0121994 -50.981598 2.0461655 -66.06984z" fill-rule="evenodd"/><path fill="#8e5214" d="m227.79776 368.0818c-5.0682526 -0.23059082 -12.208862 0.53652954 -16.125046 1.3810425c-3.9161682 0.84451294 -5.9127502 2.3037415 -7.371994 3.6860046c-1.4592438 1.3822327 -4.0709686 4.1467285 -1.3834534 4.607483c2.6875 0.4607544 12.51683 -1.8429871 17.5085 -1.8429871c4.9916534 0 8.8320465 2.6875 12.441452 1.8429871c3.6094055 -0.84451294 10.059906 -5.2976074 9.214996 -6.910034c-0.84490967 -1.6124268 -9.216202 -2.5339355 -14.284454 -2.7644958z" fill-rule="evenodd"/><path fill="#8e5214" d="m184.68086 394.33286c-0.84490967 1.4588318 -0.0012054443 5.2976074 1.3810425 6.910034c1.3822479 1.6124268 5.069458 1.5358276 6.9124603 2.7644958c1.8430023 1.2286682 1.5346222 3.9161682 4.1455383 4.6075134c2.6109161 0.6913147 8.8320465 0.46194458 11.5199585 -0.4595642c2.687912 -0.9214783 4.8380737 -3.2264404 4.607498 -5.069458c-0.23057556 -1.8429871 -3.533615 -5.1440125 -5.9909515 -5.9885254c-2.4573364 -0.84451294 -6.0655365 1.6894226 -8.7530365 0.9214783c-2.6875153 -0.7679138 -5.0682526 -4.9146423 -7.3720093 -5.5289917c-2.3037415 -0.61431885 -5.605591 0.38415527 -6.4505005 1.8430176z" fill-rule="evenodd"/><path fill="#efefef" fill-opacity="0.6863" d="m354.0623 77.0225l0 0c-14.698883 -8.415382 -19.461304 -23.534275 -10.6371765 -33.768986c8.824127 -10.234711 27.89331 -11.709564 42.592163 -3.2941818l0 0c-13.441895 -3.0595856 -26.767883 0.23571396 -33.763 8.349037c-6.995117 8.113327 -6.2815247 19.44656 1.8080139 28.71413z" fill-rule="evenodd"/><path fill="#efefef" fill-opacity="0.6863" d="m367.32013 81.11473l0 0c-14.698853 -8.415382 -18.66214 -24.450375 -8.852203 -35.81515c9.809937 -11.364777 29.678253 -13.75573 44.377136 -5.3403435c-14.523315 -6.238285 -32.054993 -3.136856 -41.02768 7.2579727c-8.972687 10.394829 -6.621277 24.8797 5.5027466 33.897522z" fill-rule="evenodd"/><path fill="#efefef" fill-opacity="0.6863" d="m313.613 106.5105l0 0c-14.698853 -8.415382 -19.461273 -23.534271 -10.637146 -33.768982c8.824127 -10.2347145 27.89331 -11.709568 42.592163 -3.2941818l0 0c-13.441895 -3.0595856 -26.767883 0.23571014 -33.763 8.349037c-6.9951477 8.113327 -6.2815247 19.446556 1.8079834 28.714127z" fill-rule="evenodd"/><path fill="#efefef" fill-opacity="0.6863" d="m327.22238 97.58541l0 0c-8.142883 -6.0590744 -8.981018 -16.227127 -1.8720093 -22.710983c7.109009 -6.4838486 19.473083 -6.8282013 27.615967 -0.7691269l0 0c-8.256409 -4.371544 -18.94983 -3.3232193 -25.314423 2.4816895c-6.3645935 5.8049088 -6.546051 14.675148 -0.4295349 20.99842z" fill-rule="evenodd"/></g></svg>